<?xml version="1.0" standalone="no"?>
<!DOCTYPE svg PUBLIC "-//W3C//DTD SVG 20010904//EN"
 "http://www.w3.org/TR/2001/REC-SVG-20010904/DTD/svg10.dtd">
<svg version="1.0" xmlns="http://www.w3.org/2000/svg"
 width="590.000000pt" height="590.000000pt" viewBox="0 0 590.000000 590.000000"
 preserveAspectRatio="xMidYMid meet">
<metadata>
Created by potrace 1.11, written by Peter Selinger 2001-2013
</metadata>
<g transform="translate(0.000000,590.000000) scale(0.100000,-0.100000)"
fill="#000000" stroke="none">
<path d="M2804 5565 c0 -71 1 -99 3 -62 2 37 2 96 0 130 -2 34 -3 4 -3 -68z"/>
<path d="M2883 5490 c0 -107 3 -242 7 -300 6 -95 7 -86 8 93 l2 197 178 1
c121 1 164 4 137 10 -22 4 -102 8 -177 8 l-138 1 -1 43 c0 23 -4 65 -9 92 -5
33 -7 -15 -7 -145z"/>
<path d="M1945 5628 c-3 -7 -1 -60 4 -118 l9 -105 -1 117 c-1 65 -3 118 -5
118 -1 0 -5 -6 -7 -12z"/>
<path d="M3505 5350 c2 -208 6 -283 20 -350 10 -47 22 -89 28 -95 7 -7 8 -4 4
7 -25 71 -40 218 -47 448 l-8 255 3 -265z"/>
<path d="M2733 5523 c-17 -6 -27 -65 -19 -108 5 -25 12 -35 26 -35 13 0 20 -8
22 -27 2 -14 9 -28 16 -29 7 -1 8 0 2 3 -5 2 -10 17 -10 33 0 19 -6 29 -20 33
-17 4 -20 14 -20 61 0 53 1 56 25 56 14 0 25 5 25 10 0 10 -26 12 -47 3z"/>
<path d="M1980 5493 c0 -4 120 -9 268 -9 147 -1 242 1 212 5 -87 10 -480 13
-480 4z"/>
<path d="M2525 5490 c-4 -6 25 -10 79 -10 51 0 86 4 86 10 0 6 -33 10 -79 10
-44 0 -83 -4 -86 -10z"/>
<path d="M3281 5491 c-11 -7 18 -11 93 -13 59 -2 110 0 113 5 2 4 -11 7 -29 7
-18 0 -62 3 -98 6 -36 3 -71 1 -79 -5z"/>
<path d="M1980 5399 c0 -8 103 -9 357 -5 196 3 359 8 361 11 3 3 -157 5 -356
5 -254 0 -362 -3 -362 -11z"/>
<path d="M2802 5222 c5 -103 7 -476 5 -829 -1 -353 1 -645 6 -649 4 -4 6 364
5 819 -2 534 -7 830 -13 836 -7 7 -8 -52 -3 -177z"/>
<path d="M2910 5398 c0 -5 128 -8 285 -8 188 0 285 3 285 10 0 7 -95 10 -285
8 -157 -2 -285 -6 -285 -10z"/>
<path d="M1932 5248 c-13 -166 -14 -194 -8 -187 6 6 29 329 24 334 -3 3 -10
-64 -16 -147z"/>
<path d="M4123 5199 c7 -20 27 -331 30 -459 2 -74 3 -65 5 41 2 153 -15 396
-30 419 -8 13 -9 13 -5 -1z"/>
<path d="M3732 5130 c0 -19 2 -27 5 -17 2 9 2 25 0 35 -3 9 -5 1 -5 -18z"/>
<path d="M1640 5120 c-3 -7 -6 -53 -13 -200 l-6 -125 15 145 c12 123 14 199 4
180z"/>
<path d="M2882 5015 c0 -46 2 -54 8 -33 4 14 4 41 0 60 -7 28 -8 24 -8 -27z"/>
<path d="M3742 5050 c0 -14 2 -19 5 -12 2 6 2 18 0 25 -3 6 -5 1 -5 -13z"/>
<path d="M1912 5019 c-1 -15 -5 -42 -8 -60 -5 -26 -4 -31 5 -23 8 7 11 30 8
60 -2 27 -4 37 -5 23z"/>
<path d="M3728 4995 c-3 -14 -1 -25 3 -25 5 0 9 11 9 25 0 14 -2 25 -4 25 -2
0 -6 -11 -8 -25z"/>
<path d="M3610 4973 c-7 -21 -27 -74 -45 -118 -18 -44 -43 -109 -55 -145 -12
-36 -40 -114 -62 -175 -21 -60 -41 -116 -43 -123 -2 -7 -3 -14 -2 -16 1 -1 -3
-9 -9 -17 -6 -8 -17 -32 -24 -54 -7 -22 -21 -58 -31 -80 -53 -119 -99 -237
-99 -255 0 -9 -13 -44 -30 -76 -28 -57 -31 -60 -68 -61 -50 -2 -169 -36 -236
-66 -124 -57 -219 -251 -169 -347 26 -49 71 -72 146 -73 75 -1 148 32 196 90
l31 38 0 -47 c0 -106 52 -158 159 -158 120 0 181 70 189 217 5 98 11 101 98
52 41 -24 58 -29 67 -20 8 8 6 11 -9 11 -10 0 -35 10 -54 21 -48 30 -86 39
-99 26 -8 -8 -11 -7 -11 5 0 8 -16 47 -35 86 -36 71 -121 162 -152 162 -12 0
-12 4 1 28 18 32 106 238 106 247 0 4 19 54 41 113 23 59 53 136 67 172 13 36
37 94 53 130 15 36 34 85 40 110 l12 45 8 -30 c7 -27 8 -26 4 8 -4 35 34 151
90 275 19 42 20 38 -16 51 -45 16 -46 15 -59 -26z m69 11 c5 -4 -19 -66 -31
-78 -5 -6 -8 -3 -8 7 0 9 -4 17 -9 17 -5 0 -7 -9 -4 -20 3 -11 9 -20 13 -20 5
0 -3 -28 -16 -62 -14 -35 -42 -112 -63 -173 -64 -184 -104 -274 -123 -275 -26
0 -29 14 -11 61 21 55 22 57 33 39 6 -8 10 -10 10 -4 0 5 -5 15 -10 20 -7 7
-5 26 6 57 15 44 17 46 30 30 16 -21 18 -10 4 17 -7 12 -5 32 6 64 17 48 28
57 38 30 4 -9 9 -14 13 -11 3 4 -1 17 -10 30 -17 26 -14 38 54 205 29 72 35
81 53 76 12 -4 23 -8 25 -10z m-239 -635 c0 -10 -12 -44 -26 -76 -15 -32 -39
-92 -54 -133 -53 -140 -102 -255 -117 -272 -14 -15 -12 -18 19 -31 54 -23 129
-115 162 -199 25 -63 28 -82 23 -141 -11 -128 -80 -202 -182 -194 -113 8 -141
45 -139 187 1 77 7 113 31 187 17 51 27 90 22 88 -4 -3 -16 -33 -25 -66 -9
-33 -19 -58 -21 -55 -3 2 5 38 16 78 12 41 21 77 21 81 0 14 -79 7 -139 -12
-113 -35 -188 -96 -237 -192 -32 -64 -32 -118 2 -158 79 -94 226 -42 296 104
15 33 28 66 28 74 0 8 2 12 5 9 6 -6 -19 -108 -33 -135 -32 -58 -129 -115
-196 -115 -108 0 -156 41 -156 131 0 102 76 218 174 268 57 29 181 63 232 63
44 0 65 32 110 160 19 56 43 118 53 138 10 21 35 83 55 138 32 87 40 101 57
97 10 -3 19 -14 19 -24z m-285 -561 c-2 -7 -18 -62 -35 -122 -17 -60 -42 -128
-56 -151 -65 -111 -193 -142 -259 -63 -23 28 -26 38 -21 76 11 80 19 85 143
83 81 -1 104 2 90 10 -11 6 -50 8 -102 5 -47 -3 -85 -2 -85 2 1 26 23 37 77
38 145 2 188 6 163 13 -14 4 -62 6 -107 3 -54 -3 -83 -1 -83 6 0 16 96 73 158
93 68 21 123 25 117 7z"/>
<path d="M3580 4833 c0 -15 18 -35 23 -27 3 5 -1 15 -9 22 -8 7 -14 9 -14 5z"/>
<path d="M3212 3743 c-29 -63 -64 -215 -64 -275 1 -49 20 -96 53 -129 23 -23
106 -26 148 -4 58 29 84 136 61 248 -17 82 -40 126 -89 170 -57 52 -82 49
-109 -10z m110 -10 c45 -49 57 -74 77 -156 20 -87 8 -166 -34 -212 -27 -28
-104 -43 -139 -27 -29 13 -66 87 -66 133 0 54 39 219 62 267 13 24 29 42 38
42 10 0 37 -21 62 -47z"/>
<path d="M3212 3674 c11 -10 128 -14 128 -4 0 6 -30 10 -67 10 -36 0 -64 -3
-61 -6z"/>
<path d="M3253 3623 c-29 -2 -53 -9 -53 -15 0 -6 12 -8 31 -4 17 3 56 6 85 6
30 0 54 5 54 10 0 10 -11 10 -117 3z"/>
<path d="M3286 3538 c15 -48 37 -92 41 -82 4 12 -33 104 -42 104 -4 0 -3 -10
1 -22z"/>
<path d="M2960 3563 c0 -5 5 -15 10 -23 8 -12 10 -11 10 8 0 12 -4 22 -10 22
-5 0 -10 -3 -10 -7z"/>
<path d="M2970 3505 c0 -8 5 -15 10 -15 6 0 10 7 10 15 0 8 -4 15 -10 15 -5 0
-10 -7 -10 -15z"/>
<path d="M4645 4950 c4 -35 23 -247 28 -330 2 -30 4 -21 5 25 2 85 -14 269
-28 310 l-10 30 5 -35z"/>
<path d="M2886 4894 c-7 -58 -6 -501 3 -604 3 -41 7 88 9 288 1 199 1 362 -1
362 -2 0 -7 -21 -11 -46z"/>
<path d="M1895 4827 c-4 -53 -5 -101 -3 -109 3 -7 9 33 13 90 4 57 5 105 2
108 -3 3 -8 -37 -12 -89z"/>
<path d="M3147 4824 c-32 -31 -56 -58 -54 -60 2 -2 30 23 62 56 75 76 69 78
-8 4z"/>
<path d="M1183 4745 c0 -22 2 -30 4 -17 2 12 2 30 0 40 -3 9 -5 -1 -4 -23z"/>
<path d="M1613 4690 c0 -41 2 -58 4 -37 2 20 2 54 0 75 -2 20 -4 3 -4 -38z"/>
<path d="M1884 4585 c0 -66 1 -92 3 -57 2 34 2 88 0 120 -2 31 -3 3 -3 -63z"/>
<path d="M1192 4660 c0 -19 2 -27 5 -17 2 9 2 25 0 35 -3 9 -5 1 -5 -18z"/>
<path d="M2374 4573 c-44 -46 -78 -83 -75 -83 9 0 166 159 160 162 -2 2 -40
-34 -85 -79z"/>
<path d="M1202 4600 c0 -14 2 -19 5 -12 2 6 2 18 0 25 -3 6 -5 1 -5 -13z"/>
<path d="M3572 4540 c-7 -47 -12 -107 -11 -135 1 -30 7 -1 15 75 16 145 13
184 -4 60z"/>
<path d="M4143 4580 c0 -25 2 -35 4 -22 2 12 2 32 0 45 -2 12 -4 2 -4 -23z"/>
<path d="M3177 4559 l-42 -41 48 37 c26 21 47 39 47 41 0 11 -15 0 -53 -37z"/>
<path d="M1623 4520 c0 -36 2 -50 4 -32 2 17 2 47 0 65 -2 17 -4 3 -4 -33z"/>
<path d="M1203 4500 c0 -30 2 -43 4 -27 2 15 2 39 0 55 -2 15 -4 2 -4 -28z"/>
<path d="M3788 4403 c-2 -76 -1 -147 3 -158 4 -11 8 51 8 138 1 86 -1 157 -3
157 -2 0 -6 -62 -8 -137z"/>
<path d="M4141 4494 c0 -11 3 -14 6 -6 3 7 2 16 -1 19 -3 4 -6 -2 -5 -13z"/>
<path d="M1889 4439 c-3 -14 -2 -61 3 -105 5 -43 8 -116 5 -161 -2 -45 0 -80
5 -77 9 6 9 194 -1 299 -4 47 -8 61 -12 44z"/>
<path d="M4885 4354 c-22 -7 -60 -10 -85 -8 -33 4 -41 3 -30 -5 20 -14 74 -13
134 3 65 17 113 7 206 -42 57 -30 76 -45 78 -63 2 -13 16 -37 32 -54 33 -35
47 -79 31 -99 -8 -10 -6 -28 11 -74 24 -68 20 -80 -34 -108 -35 -18 -47 -12
-41 21 3 13 9 23 13 20 13 -8 32 42 25 64 -4 13 -1 28 5 36 9 10 9 15 1 15 -6
0 -22 -22 -35 -48 -14 -27 -41 -61 -60 -76 -46 -35 -157 -87 -188 -88 -13 0
-57 -9 -98 -20 -51 -13 -101 -18 -155 -16 l-80 3 -35 48 -35 48 -53 -4 c-40
-3 -59 -10 -80 -30 -33 -31 -74 -35 -100 -9 -9 9 -26 43 -37 75 l-19 57 29 56
c17 31 42 65 57 77 15 11 30 33 33 48 7 29 57 79 79 79 7 0 45 16 85 35 40 20
93 38 117 42 24 3 41 10 38 15 -3 5 -15 6 -26 2 -11 -3 -30 -7 -41 -8 -12 -2
-49 -17 -82 -34 -33 -18 -66 -32 -73 -32 -26 0 -92 -55 -102 -86 -6 -17 -24
-44 -41 -60 -42 -40 -82 -120 -76 -153 3 -14 13 -48 24 -76 17 -44 23 -51 57
-59 26 -7 43 -6 57 2 22 14 32 15 25 3 -3 -5 -2 -32 4 -60 5 -27 10 -67 11
-88 2 -53 9 -93 18 -93 7 0 1 68 -18 203 -9 67 -5 72 60 81 l47 7 35 -49 c41
-57 63 -64 177 -52 169 18 346 76 394 129 27 29 33 26 28 -14 -4 -30 -1 -35
17 -35 31 0 78 27 92 51 8 17 7 34 -6 76 -14 43 -15 60 -6 79 13 28 -3 68 -45
113 -13 14 -24 33 -24 42 0 20 -26 44 -70 64 -19 9 -50 25 -68 36 -40 26 -122
32 -177 13z m335 -358 c0 -16 -30 -50 -37 -42 -5 4 26 56 33 56 2 0 4 -6 4
-14z"/>
<path d="M3550 4292 c0 -71 -28 -219 -66 -356 -19 -67 -36 -146 -39 -176 l-4
-55 10 55 c6 30 24 102 39 160 16 58 36 137 45 175 17 75 32 245 21 245 -3 0
-6 -22 -6 -48z"/>
<path d="M4731 4248 c-6 -17 -9 -33 -7 -35 7 -8 45 30 39 40 -3 5 9 1 26 -8
18 -9 29 -20 26 -25 -4 -6 -8 -10 -11 -10 -3 0 -3 4 0 9 10 16 -27 22 -42 7
-13 -13 -13 -17 -1 -33 13 -16 12 -17 -3 -4 -18 13 -63 10 -113 -9 -21 -8 -22
-13 -15 -46 5 -20 15 -41 22 -46 8 -6 0 -7 -24 -3 -37 6 -38 5 -38 -24 0 -17
5 -42 12 -56 20 -44 -2 -42 -42 4 -39 45 -41 64 -11 88 9 7 25 13 36 13 11 1
14 4 7 7 -18 7 -72 -20 -72 -37 -1 -24 -40 29 -40 54 0 11 -5 28 -10 36 -7 11
-8 4 -4 -23 12 -84 124 -208 199 -221 84 -15 145 -18 145 -7 0 6 -18 11 -42
12 -65 1 -100 6 -133 19 -26 10 -28 13 -12 21 9 6 22 7 27 4 6 -3 18 1 27 10
14 14 14 18 2 26 -10 6 -10 9 -1 9 6 0 12 5 12 11 0 6 -6 9 -12 6 -7 -2 -21 0
-30 5 -17 8 -24 -5 -19 -35 1 -5 -3 -5 -9 -2 -6 4 -9 13 -6 21 3 7 1 16 -4 19
-6 4 -10 11 -10 17 0 7 4 7 13 1 14 -11 27 -11 44 0 9 6 11 3 7 -8 -5 -11 -2
-14 10 -9 21 8 20 11 -9 46 -38 45 -33 72 15 87 29 8 45 9 60 1 30 -16 40 -42
25 -63 -16 -22 -28 -22 -50 3 -10 11 -20 18 -22 16 -8 -7 36 -46 52 -46 8 0
15 -7 15 -15 0 -9 -10 -15 -26 -15 -20 0 -25 -4 -20 -16 4 -9 2 -22 -2 -28
-12 -15 -21 -66 -12 -66 4 0 12 18 18 39 7 21 23 46 37 55 14 9 25 26 25 37 0
29 27 65 66 88 43 26 44 26 44 0 0 -14 5 -19 15 -16 8 4 17 2 20 -3 7 -12 65
-40 82 -40 7 0 13 -4 13 -10 0 -5 10 -12 23 -15 12 -4 30 -18 41 -32 19 -25
19 -25 -10 -49 -16 -13 -47 -29 -69 -35 -66 -18 -86 -30 -40 -24 22 3 59 15
83 27 49 25 122 99 122 125 0 12 -9 5 -25 -20 -14 -20 -27 -37 -29 -37 -1 0
-22 18 -45 40 -23 22 -50 40 -60 40 -10 0 -24 7 -31 15 -7 8 -18 15 -26 15 -7
0 -16 4 -19 10 -4 6 6 7 27 3 18 -3 37 -12 41 -20 4 -7 14 -13 21 -13 17 0 74
-29 81 -41 4 -5 11 -9 16 -9 6 0 7 5 4 10 -9 14 -82 60 -96 60 -6 0 -18 7 -27
16 -14 15 -14 18 9 35 13 10 38 19 54 20 26 2 27 2 6 6 -28 5 -91 -26 -91 -44
0 -17 -47 -7 -72 14 -13 12 -21 12 -38 3 -17 -9 -25 -9 -34 0 -8 8 -7 10 7 5
10 -4 17 -2 17 4 0 13 -32 35 -82 55 l-36 16 -11 -32z m99 -62 c0 -2 -7 -7
-16 -10 -8 -3 -12 -2 -9 4 6 10 25 14 25 6z m-30 -30 c0 -3 -4 -8 -10 -11 -5
-3 -10 -1 -10 4 0 6 5 11 10 11 6 0 10 -2 10 -4z"/>
<path d="M4070 4250 c0 -5 5 -10 10 -10 6 0 10 5 10 10 0 6 -4 10 -10 10 -5 0
-10 -4 -10 -10z"/>
<path d="M1542 4233 c-7 -10 -10 -12 -7 -5 10 20 -11 14 -44 -14 -17 -14 -31
-36 -31 -47 0 -18 4 -15 18 12 9 19 24 37 32 39 13 4 13 2 -1 -14 -31 -37 -32
-49 -2 -16 25 25 39 32 70 32 46 -1 81 -19 100 -51 14 -24 14 -24 8 6 -4 24
-3 27 6 12 7 -13 7 -34 -1 -75 -7 -31 -14 -60 -16 -64 -3 -4 -27 5 -55 20 -45
23 -53 24 -63 11 -13 -18 -56 -32 -56 -18 0 5 -8 9 -17 10 -11 0 -13 3 -5 6 6
2 11 19 11 36 -2 32 -2 32 -6 4 -3 -18 -9 -27 -18 -24 -10 4 -11 -3 -4 -31 7
-30 5 -42 -10 -63 -29 -39 -53 -120 -47 -155 12 -60 64 -91 158 -93 133 -4
188 31 188 120 0 26 -4 59 -10 73 -8 21 -6 27 10 36 21 11 27 45 10 55 -6 4
-21 0 -34 -8 l-22 -15 -1 66 c0 48 3 60 8 42 6 -18 7 -13 3 15 -10 72 -40 101
-116 111 -35 4 -46 2 -56 -13z m133 -23 c3 -5 2 -10 -4 -10 -5 0 -13 5 -16 10
-3 6 -2 10 4 10 5 0 13 -4 16 -10z m20 -159 c-4 -17 -10 -31 -14 -31 -5 0 -3
15 3 34 13 42 21 39 11 -3z m-105 19 c0 -5 15 -16 34 -24 36 -15 55 -51 37
-69 -6 -6 -38 -13 -71 -15 -62 -5 -85 -22 -29 -22 52 0 110 22 119 44 5 12 9
17 9 12 1 -4 12 -1 25 8 31 20 48 1 18 -19 -18 -14 -19 -17 -5 -60 17 -51 11
-105 -15 -127 -60 -52 -205 -49 -269 6 -31 27 -35 79 -9 139 16 37 17 37 41
21 14 -9 28 -14 31 -11 3 3 -4 10 -15 17 -12 6 -21 17 -21 24 0 18 30 43 62
51 15 4 29 13 32 21 6 16 26 19 26 4z"/>
<path d="M5105 4198 c6 -22 3 -29 -11 -35 -10 -4 -19 -2 -22 5 -2 7 -8 12 -14
12 -6 0 -5 -6 2 -15 7 -9 22 -14 34 -13 15 2 21 -2 20 -14 -1 -10 2 -18 8 -18
12 0 2 80 -12 94 -9 8 -10 4 -5 -16z"/>
<path d="M3777 4126 c-4 -49 -5 -91 -3 -93 7 -7 18 118 14 152 -2 17 -7 -10
-11 -59z"/>
<path d="M4420 4165 c0 -14 4 -25 9 -25 4 0 6 11 3 25 -2 14 -6 25 -8 25 -2 0
-4 -11 -4 -25z"/>
<path d="M2880 3961 c0 -89 3 -161 8 -161 11 0 14 308 2 315 -7 4 -10 -49 -10
-154z"/>
<path d="M4900 4113 c0 -10 80 -43 100 -42 8 0 -9 11 -39 25 -60 27 -61 27
-61 17z"/>
<path d="M4366 4085 c-38 -35 -56 -84 -49 -131 12 -79 46 -85 107 -17 l42 46
-22 24 c-12 13 -25 42 -29 64 -4 21 -10 39 -14 39 -5 0 -20 -11 -35 -25z m31
-28 c-3 -18 -1 -53 3 -77 7 -36 5 -49 -8 -63 -24 -27 -43 -17 -58 32 -14 49
-11 62 23 109 31 42 47 42 40 -1z m43 -91 c-7 -9 -17 -16 -23 -16 -6 0 -8 2
-5 6 3 3 2 21 -2 41 l-9 36 26 -26 c22 -22 24 -28 13 -41z"/>
<path d="M4117 4084 c-9 -10 2 -24 19 -24 8 0 14 7 14 15 0 15 -21 21 -33 9z"/>
<path d="M1020 4059 c0 -12 358 -10 366 2 3 5 -78 9 -180 9 -124 0 -186 -4
-186 -11z"/>
<path d="M1810 4060 c84 -12 300 -12 300 0 0 6 -65 9 -177 9 -128 -1 -163 -4
-123 -9z"/>
<path d="M2147 4053 c-4 -3 -7 -17 -7 -31 0 -21 -3 -23 -22 -18 -42 13 -214
30 -231 23 -21 -8 -33 -55 -19 -78 9 -14 0 -29 -57 -92 -112 -122 -162 -209
-160 -276 0 -16 6 -6 15 29 16 59 83 167 136 217 18 17 47 47 64 66 l31 34 89
-23 c49 -13 103 -23 119 -23 54 -1 147 -31 177 -56 37 -31 52 -31 72 0 21 31
20 39 -1 31 -17 -6 -17 -5 -1 7 10 8 15 17 11 21 -8 8 -43 -23 -43 -40 0 -7 6
-15 13 -17 7 -3 4 -6 -7 -6 -10 -1 -31 10 -47 23 -29 25 -44 29 -239 67 -130
25 -155 36 -155 69 0 24 2 25 70 25 39 -1 96 -7 128 -14 50 -11 57 -15 57 -37
0 -15 6 -24 15 -24 8 0 18 0 23 0 4 0 7 4 7 9 0 5 3 12 7 16 8 8 154 -44 179
-64 20 -16 20 -17 -5 -65 -13 -26 -27 -71 -29 -100 -5 -50 -39 -152 -71 -214
-8 -16 -40 -51 -70 -77 l-55 -46 -103 21 c-57 11 -161 38 -233 58 -104 30
-132 43 -140 60 -11 26 -31 30 -20 5 4 -10 10 -28 12 -40 3 -13 9 -20 14 -18
4 3 16 1 26 -4 10 -5 38 -14 63 -21 25 -6 89 -25 143 -41 53 -17 114 -32 135
-34 20 -3 52 -7 71 -9 32 -5 40 1 100 62 52 52 73 84 99 144 17 43 32 88 32
100 0 40 18 6 55 -107 47 -141 54 -194 29 -217 -36 -31 -254 -47 -814 -59
-289 -6 -563 -12 -610 -15 -47 -2 -91 -4 -97 -4 -7 0 -13 -5 -13 -11 0 -8 42
-10 153 -4 83 4 265 9 402 10 590 8 890 24 970 55 22 8 23 8 14 -22 -4 -17
-11 -33 -14 -36 -11 -11 -140 -21 -275 -22 -74 0 -225 -7 -335 -15 -110 -8
-335 -15 -500 -17 -165 -1 -328 -2 -363 -2 -41 -1 -62 -5 -62 -13 0 -9 54 -11
217 -7 120 2 326 6 458 9 132 2 287 9 345 14 58 6 192 12 298 14 192 4 192 4
192 -18 0 -18 -8 -23 -62 -32 -35 -5 -128 -11 -208 -13 -166 -3 -231 -5 -385
-14 -60 -3 -166 -6 -235 -7 -69 0 -221 -8 -339 -16 -118 -8 -229 -13 -248 -11
-18 2 -33 0 -33 -4 0 -4 10 -9 23 -9 12 -1 28 -2 36 -3 24 -2 28 -39 34 -297
l5 -247 -24 -11 c-14 -6 -40 -11 -59 -11 -19 0 -35 -4 -35 -10 0 -11 12 -13
48 -10 30 2 29 -24 -3 -62 -15 -18 -26 -43 -26 -64 -1 -19 -2 -37 -4 -41 -1
-5 -5 -26 -9 -48 -4 -22 -12 -50 -18 -62 -7 -14 -9 -50 -5 -94 5 -57 2 -81
-14 -121 -14 -36 -19 -72 -18 -122 1 -60 -4 -82 -30 -140 -21 -45 -31 -84 -30
-110 1 -41 -14 -151 -27 -194 -4 -14 1 -38 14 -65 11 -23 24 -55 29 -71 10
-37 79 -76 137 -77 23 -1 52 -4 66 -8 14 -4 38 -4 53 0 16 4 38 4 50 0 22 -8
87 7 87 20 0 5 -11 4 -24 -1 -14 -5 -78 -7 -144 -5 -105 4 -124 8 -165 31 -38
21 -48 32 -53 62 -4 20 -15 50 -25 66 -14 23 -15 34 -6 55 6 14 12 46 13 71 9
134 15 167 43 237 25 65 30 90 28 153 -1 56 3 83 16 108 15 28 17 47 12 105
-5 54 -3 81 9 108 8 20 18 67 22 104 5 49 13 75 30 95 13 15 24 40 24 54 0 19
7 30 28 38 15 7 34 17 42 24 25 19 59 23 74 9 8 -8 47 -17 92 -20 44 -4 98
-13 121 -21 23 -8 65 -14 95 -14 95 2 322 -19 366 -34 35 -12 102 -1 102 16 0
11 -18 10 -40 -2 -13 -7 -31 -5 -62 6 -42 14 -226 28 -353 26 -32 -1 -79 5
-103 13 -24 9 -75 17 -113 20 -39 2 -79 11 -92 20 -26 18 -44 19 -78 1 -17 -9
-26 -10 -26 -2 0 6 -4 126 -8 267 l-8 255 194 13 c208 13 479 19 479 11 0 -3
-20 -14 -45 -25 l-44 -20 47 -82 c26 -45 50 -85 54 -88 9 -9 148 55 148 68 0
6 -22 41 -50 79 -27 38 -50 71 -50 73 0 3 20 5 45 5 44 0 45 -1 45 -32 l0 -31
-23 26 c-12 15 -27 27 -32 27 -5 0 5 -15 21 -32 30 -33 78 -100 103 -145 10
-20 11 -27 1 -36 -10 -9 -12 -8 -7 5 11 31 -11 29 -80 -5 -78 -39 -319 -134
-414 -164 -17 -5 -22 2 -110 156 -50 87 -125 176 -151 177 -23 2 -23 -9 -1
-27 15 -12 16 -12 10 6 -12 33 80 -75 115 -135 17 -30 44 -74 60 -98 19 -27
27 -49 23 -61 -3 -11 -1 -22 4 -26 7 -3 8 0 5 9 -9 24 4 19 17 -5 6 -13 7 -19
1 -15 -6 3 -12 0 -15 -6 -2 -7 -11 2 -21 20 -10 19 -21 30 -28 26 -7 -4 -8 -3
-4 5 4 6 12 9 17 6 5 -4 9 -2 9 3 0 16 -13 22 -26 11 -8 -7 -14 -6 -20 2 -4 7
-3 9 4 5 6 -3 13 -2 16 3 8 12 -98 177 -112 174 -6 -2 -9 3 -6 10 3 8 -4 25
-15 38 l-20 24 2 -25 c4 -36 26 -72 42 -66 9 3 12 0 8 -10 -3 -8 0 -21 7 -29
7 -9 11 -18 8 -21 -6 -6 -45 40 -70 82 -10 16 -25 40 -35 54 l-17 25 22 -19
c12 -11 22 -15 22 -10 -1 10 -46 64 -55 64 -19 0 44 -128 88 -179 26 -30 13
-89 -36 -156 l-28 -40 21 -17 c11 -9 41 -20 66 -24 34 -5 44 -10 40 -21 -15
-39 -17 -60 -4 -60 7 -1 45 -6 83 -13 39 -7 84 -14 100 -15 17 -2 41 -7 55
-10 27 -6 318 -7 385 -1 l40 4 -2 153 c-2 85 0 148 3 142 3 -7 11 -13 16 -13
11 0 118 -77 129 -92 8 -12 74 61 99 110 12 23 26 45 32 48 5 3 23 24 39 46
l29 41 1 -44 c0 -24 2 -55 4 -69 15 -123 15 -122 -50 -182 -58 -53 -112 -87
-165 -103 -14 -4 -51 -23 -83 -42 l-59 -35 30 -32 c32 -33 112 -157 112 -173
0 -11 73 -83 84 -83 5 0 2 8 -7 18 -10 10 -14 22 -10 27 5 4 3 5 -3 2 -14 -8
-32 12 -68 76 -15 26 -24 52 -20 59 4 6 3 8 -3 5 -6 -4 -22 11 -36 32 l-26 39
52 -20 c147 -55 255 -133 333 -239 l37 -51 -92 -89 c-51 -49 -96 -89 -101 -89
-15 0 -71 53 -94 89 l-23 36 84 99 c77 92 108 142 65 103 -10 -10 -21 -14 -24
-11 -3 3 -9 0 -14 -7 -4 -8 -3 -10 4 -5 7 4 12 3 12 -2 0 -14 -26 -33 -34 -25
-4 4 -4 0 -1 -9 7 -19 -37 -58 -69 -59 -19 -1 -19 -2 3 -8 23 -6 20 -10 -45
-75 -38 -38 -111 -103 -161 -143 -119 -95 -120 -110 -17 -242 43 -55 54 -81
34 -81 -5 0 -10 8 -11 18 -1 26 -28 -42 -30 -75 0 -15 2 -39 6 -53 l6 -25 -15
25 -15 25 2 -29 c3 -36 22 -45 37 -17 8 15 7 26 -1 39 -9 14 -9 23 0 38 10 17
10 16 5 -8 -4 -18 -2 -28 5 -28 7 0 11 6 9 13 -1 6 4 29 11 51 13 38 14 38 33
19 15 -16 17 -24 9 -46 -8 -19 -15 -25 -27 -20 -12 4 -15 3 -10 -5 8 -13 -18
-67 -38 -79 -7 -4 -16 -15 -19 -23 -4 -10 -6 -7 -6 8 -1 12 -5 22 -10 22 -6 0
-6 -12 0 -32 5 -21 5 -36 -1 -42 -7 -7 -10 -5 -11 5 0 12 -19 -51 -31 -101 -1
-8 -6 -17 -10 -20 -6 -5 -48 -154 -48 -173 0 -5 46 -6 108 -2 83 6 134 3 220
-11 62 -9 110 -19 108 -21 -2 -3 -69 3 -147 11 -99 11 -167 13 -219 7 -84 -9
-73 -11 68 -13 181 -2 333 -23 407 -57 37 -17 70 -31 75 -31 5 0 10 -5 12 -10
4 -12 236 -18 261 -6 10 5 17 4 17 -2 0 -6 -8 -13 -17 -15 -10 -3 2 -5 27 -5
54 0 258 -45 299 -67 39 -20 41 -19 41 10 0 18 4 23 15 19 10 -4 15 0 16 12 0
11 2 28 3 39 16 114 28 181 41 240 8 39 25 121 37 183 l22 114 -24 18 c-71 53
-316 77 -455 45 -42 -10 -78 -22 -81 -27 -3 -5 -13 -3 -22 5 -30 26 -260 102
-334 111 -23 3 -49 1 -59 -5 -11 -5 -19 -6 -19 -1 0 5 -12 7 -27 5 -16 -3 -40
0 -54 5 -22 9 -27 20 -39 81 -8 43 -10 75 -4 80 5 4 48 37 95 73 65 49 92 65
110 61 13 -2 60 0 104 6 l80 10 38 -42 c61 -66 70 -83 58 -106 -7 -13 -8 -22
-1 -26 5 -3 10 3 10 14 0 18 6 15 35 -18 20 -21 59 -55 88 -74 45 -31 66 -38
159 -52 59 -8 114 -18 122 -21 21 -8 20 0 -5 66 -11 30 -18 66 -15 80 2 15 36
85 75 156 55 101 88 147 151 214 75 79 82 84 92 65 19 -33 41 -44 88 -45 38 0
51 6 85 36 65 58 114 85 225 124 111 39 129 49 261 149 46 35 91 66 99 69 8 3
30 17 49 31 29 22 46 26 103 27 38 1 71 4 75 8 3 3 -25 6 -64 6 -69 0 -71 -1
-173 -66 -57 -36 -124 -82 -149 -103 -54 -45 -134 -87 -205 -108 -70 -20 -172
-75 -230 -123 -43 -36 -53 -40 -85 -34 -52 9 -79 38 -86 93 -16 128 -51 245
-87 288 -6 8 -12 24 -13 36 -1 12 -5 30 -10 40 -10 24 201 231 306 299 44 28
77 53 75 56 -14 13 -184 -117 -287 -221 l-115 -116 -45 26 c-24 14 -52 33 -61
41 -18 15 -24 48 -10 54 4 2 17 24 30 49 33 65 173 206 266 267 43 29 75 52
69 52 -5 0 -38 -19 -72 -41 -101 -65 -200 -114 -281 -139 -86 -25 -122 -42
-147 -69 -15 -16 -41 -21 -158 -29 -129 -8 -146 -12 -215 -44 -41 -19 -96 -51
-122 -71 l-46 -35 -6 106 c-3 59 -8 142 -11 184 -2 44 0 80 5 83 6 4 10 -30
10 -87 0 -136 11 -258 23 -251 6 3 7 67 2 173 l-7 167 47 7 c83 11 77 22 73
-134 -2 -77 0 -140 5 -140 4 0 7 53 7 119 0 157 9 241 26 241 18 0 38 74 38
140 -1 39 -15 94 -48 190 -63 178 -64 186 -32 249 33 64 26 81 -47 111 -40 17
-57 30 -67 54 -7 17 -12 36 -11 42 3 20 -86 44 -102 27z m107 -79 c4 -10 1
-14 -6 -12 -15 5 -23 28 -10 28 5 0 13 -7 16 -16z m-254 -573 c0 -5 -9 -7 -20
-4 -11 3 -20 7 -20 9 0 2 9 4 20 4 11 0 20 -4 20 -9z m47 -7 c-3 -3 -12 -4
-19 -1 -8 3 -5 6 6 6 11 1 17 -2 13 -5z m163 -320 c0 -35 -4 -64 -9 -64 -5 0
-13 -9 -16 -21 -4 -12 -22 -38 -40 -58 -18 -20 -35 -46 -39 -58 -8 -24 -21
-30 -31 -13 -3 6 -17 10 -31 10 -14 0 -24 6 -24 14 0 8 -8 13 -17 12 -14 -1
-18 6 -16 29 2 37 4 104 3 128 -1 10 -8 21 -16 24 -8 3 -14 11 -14 18 0 8 -9
17 -20 20 -38 12 -20 25 33 24 28 -1 44 -3 35 -6 -21 -5 -23 -24 -6 -41 9 -9
16 -8 30 5 24 21 24 -1 -1 -24 -20 -20 -34 -63 -20 -63 5 0 9 9 9 20 0 10 9
24 20 30 11 6 20 16 20 22 0 6 7 20 17 30 9 10 11 18 5 18 -6 0 -14 -5 -17
-10 -5 -8 -12 -7 -23 2 -13 11 -2 14 69 18 46 3 87 4 92 2 4 -2 7 -32 7 -68z
m-315 54 c28 -13 30 -19 13 -36 -18 -18 -27 -14 -21 9 5 18 3 20 -16 14 -15
-5 -21 -2 -21 9 0 19 10 20 45 4z m-63 -75 c-9 -28 -17 -2 -13 39 l5 43 6 -35
c3 -19 4 -41 2 -47z m-107 27 c10 -11 14 -20 9 -20 -5 0 -15 9 -22 20 -7 11
-11 20 -9 20 2 0 12 -9 22 -20z m164 -10 c5 0 14 7 21 15 18 21 40 19 40 -5 0
-12 5 -17 14 -14 10 4 13 -5 12 -33 -1 -21 -4 -37 -8 -35 -5 1 -17 2 -28 2
-21 0 -55 32 -55 53 0 7 -7 12 -15 12 -8 0 -16 9 -18 19 -4 18 -3 19 13 3 9
-9 20 -17 24 -17z m1144 -63 c-43 -46 -89 -104 -103 -130 -14 -26 -28 -47 -31
-47 -18 0 -119 86 -117 99 4 19 68 56 133 76 107 33 121 39 155 61 19 13 37
23 39 23 2 1 -32 -36 -76 -82z m-1408 63 c3 -6 -1 -7 -9 -4 -18 7 -21 14 -7
14 6 0 13 -4 16 -10z m-9 -30 c5 0 15 -14 22 -30 8 -17 21 -37 29 -45 36 -36
101 0 89 50 -9 34 0 32 19 -6 12 -23 14 -34 5 -44 -16 -19 -77 -38 -91 -29 -8
4 -9 3 -5 -4 4 -7 1 -12 -7 -12 -7 0 -19 10 -25 23 -6 12 -25 47 -42 77 -17
30 -25 47 -17 38 8 -10 18 -18 23 -18z m110 3 c11 -11 13 -18 5 -21 -6 -2 -11
-8 -11 -13 0 -6 5 -7 11 -3 7 4 10 -1 7 -12 -4 -25 -33 -29 -63 -10 -24 16
-34 54 -18 69 12 13 52 7 69 -10z m209 -57 c8 4 15 1 15 -6 0 -7 6 -10 14 -7
11 4 13 -4 9 -38 -4 -39 5 -58 27 -60 23 -3 79 -39 73 -49 -11 -20 -46 -56
-55 -56 -5 0 -38 23 -74 50 -36 28 -68 50 -72 50 -29 -1 -34 -21 -33 -136 1
-65 4 -128 7 -140 5 -20 1 -21 -107 -27 -116 -6 -322 2 -317 12 2 3 10 18 17
34 13 24 20 27 63 27 49 0 56 -7 38 -39 -8 -15 -6 -17 15 -13 20 3 24 9 21 28
-3 16 0 24 10 24 8 0 14 -10 14 -25 0 -18 5 -25 19 -25 23 0 34 23 18 40 -9
10 -8 12 5 7 10 -3 20 -2 22 2 7 11 56 2 56 -10 0 -5 -4 -9 -10 -9 -13 0 -13
-27 0 -35 19 -12 41 15 30 36 -9 17 -7 18 18 13 17 -4 32 -1 39 8 16 19 26
201 11 196 -6 -2 -12 -22 -13 -44 0 -21 -2 -62 -3 -90 l-2 -51 -177 3 c-256 3
-479 26 -504 51 -5 5 5 29 21 53 17 25 33 63 37 84 l6 39 23 -28 c16 -21 21
-37 17 -56 -5 -25 -1 -30 36 -45 22 -9 41 -19 41 -23 0 -3 7 -14 14 -23 12
-17 15 -17 57 -1 24 10 47 21 50 26 4 5 12 6 19 2 9 -6 11 -4 5 5 -6 9 -2 10
16 5 22 -7 23 -7 9 10 -14 17 -13 18 4 8 23 -13 72 5 244 88 130 63 132 64
132 51 0 -5 -18 -17 -40 -27 -22 -10 -40 -22 -40 -27 0 -5 -5 -6 -12 -2 -7 4
-8 3 -4 -4 7 -12 36 -5 36 9 0 5 9 9 20 9 25 0 100 46 100 61 0 6 -11 25 -25
43 -14 18 -25 45 -25 60 l0 27 35 -35 c21 -22 41 -33 50 -30z m-713 -100 c8
-14 7 -17 -2 -11 -8 5 -11 3 -8 -6 3 -8 11 -14 18 -14 7 0 14 -10 15 -23 2
-20 -1 -19 -26 10 -16 18 -26 39 -24 46 3 7 0 23 -6 35 -10 22 -10 22 6 2 9
-11 21 -28 27 -39z m1571 2 c28 -27 38 -47 52 -105 9 -40 21 -73 25 -73 4 0
10 -23 14 -50 5 -35 12 -53 24 -57 9 -3 24 -12 34 -20 14 -13 17 -12 23 6 7
24 -2 81 -14 81 -4 0 -6 -17 -4 -37 3 -35 2 -36 -8 -13 -30 66 -30 66 -24 33
2 -18 0 -33 -5 -33 -13 0 -23 85 -12 106 5 11 7 25 5 32 -3 6 -1 12 3 12 11 0
107 -60 132 -83 27 -25 29 -41 3 -27 -26 13 -31 13 -27 -2 13 -42 16 -69 6
-63 -5 3 -10 1 -10 -4 0 -6 7 -11 16 -11 13 0 15 7 9 37 -6 32 -5 35 9 24 24
-20 65 -99 81 -155 17 -61 34 -186 25 -186 -15 0 -70 69 -95 120 -15 30 -38
72 -51 92 -25 39 -31 68 -15 68 14 0 22 29 15 56 -10 38 -26 28 -18 -11 4 -21
2 -35 -4 -35 -25 0 -20 -36 12 -89 18 -31 43 -75 55 -99 12 -24 37 -60 56 -80
l34 -38 -82 -88 c-66 -71 -95 -115 -149 -218 -73 -138 -79 -165 -53 -238 14
-39 14 -42 -3 -35 -9 3 -30 8 -47 10 -160 21 -166 23 -222 66 -60 47 -97 90
-108 129 -4 14 -42 93 -83 175 -68 132 -86 159 -152 226 -81 81 -158 130 -277
176 -40 15 -73 30 -73 33 0 3 25 17 55 32 31 15 81 40 113 55 31 15 91 59 132
97 86 78 138 116 210 152 77 39 105 45 230 53 63 4 118 9 121 9 4 1 23 -13 42
-30z m96 -71 c13 -16 4 -104 -9 -90 -7 7 -40 108 -40 120 0 7 37 -16 49 -30z
m-1606 -158 l32 -1 -30 -13 c-26 -12 -27 -14 -8 -15 12 0 28 7 37 15 22 22 56
19 56 -5 0 -13 7 -20 20 -20 11 0 20 7 20 15 0 8 5 15 10 15 19 0 10 -39 -12
-54 -33 -23 -68 -21 -68 4 0 22 -28 28 -36 7 -5 -14 -80 -11 -90 5 -3 5 -3 21
0 34 5 18 12 24 22 20 9 -3 30 -6 47 -7z m117 -19 c0 -5 -5 -10 -11 -10 -5 0
-7 5 -4 10 3 6 8 10 11 10 2 0 4 -4 4 -10z m976 -607 c-26 -14 -152 -32 -177
-26 -13 4 2 23 60 81 l76 77 32 -60 31 -60 -22 -12z m-282 -19 c14 -9 26 -20
26 -25 0 -4 -36 -34 -81 -66 l-81 -58 6 -45 c3 -25 8 -65 11 -90 8 -56 -10
-86 -46 -77 -25 7 -120 122 -152 184 -10 19 -16 45 -13 57 3 12 40 47 83 78
43 32 98 78 122 102 l44 45 28 -44 c15 -24 39 -51 53 -61z m339 -54 c-3 -3
-15 8 -28 25 -18 21 -21 31 -12 37 12 7 50 -52 40 -62z m-417 -285 c-25 -19
-37 -19 -30 0 4 8 16 15 28 15 21 -1 21 -1 2 -15z m339 -39 c127 -44 145 -53
145 -67 0 -6 -16 -53 -35 -104 -38 -101 -95 -299 -94 -324 0 -9 13 30 29 87
36 134 89 280 112 314 57 82 450 89 548 10 l21 -17 -32 -160 c-17 -88 -33
-162 -35 -164 -3 -3 -10 1 -16 7 -7 7 -25 12 -42 12 -16 0 -26 -3 -23 -7 6 -5
19 -8 61 -12 8 -1 4 -81 -9 -171 -10 -68 -12 -72 -32 -61 -38 20 -103 40 -103
32 0 -5 19 -16 42 -23 23 -8 44 -20 46 -27 3 -10 -2 -9 -19 2 -33 21 -212 60
-249 55 -16 -3 -30 0 -30 5 0 6 -26 7 -65 2 -49 -5 -65 -3 -65 6 0 15 212 6
273 -11 21 -6 44 -9 50 -7 26 9 -104 30 -215 34 -84 4 -118 2 -118 -6 0 -6
-11 -11 -25 -11 -14 0 -25 5 -25 11 0 8 -15 10 -44 7 l-44 -5 4 41 4 41 -11
-35 c-6 -19 -12 -36 -13 -38 -2 -1 -27 14 -57 33 -30 21 -61 34 -71 32 -10 -3
-16 -2 -13 3 7 11 -51 21 -83 15 -24 -5 -24 -4 -7 5 15 8 8 9 -30 5 -35 -3
-44 -2 -30 4 15 7 7 10 -32 10 -29 1 -53 6 -53 11 0 6 6 10 13 10 9 0 14 12
14 31 0 40 25 59 77 59 50 -1 89 -25 66 -41 -14 -9 -60 -5 -98 8 -14 5 -15 3
-5 -7 7 -7 35 -13 62 -14 28 -1 51 -4 51 -8 0 -14 -95 -11 -123 4 -10 5 -21 7
-24 4 -8 -8 36 -23 89 -31 55 -8 74 7 76 62 1 31 -4 45 -23 63 l-25 23 26 24
c14 12 30 23 37 23 8 0 8 3 -1 12 -7 7 -12 20 -12 30 0 25 -36 58 -64 58 -13
0 -35 -9 -50 -21 l-26 -20 0 20 c0 12 3 21 8 21 4 0 8 11 8 25 1 15 -3 25 -12
25 -8 0 -14 5 -14 10 0 6 -7 10 -15 10 -9 0 -18 7 -22 15 -5 14 -8 14 -22 2
-9 -7 -29 -14 -44 -15 l-28 -2 23 33 c12 17 22 38 20 44 -2 7 2 13 8 13 6 0 8
-4 5 -10 -3 -5 3 -10 15 -10 11 0 38 -8 59 -18 l38 -19 20 44 c11 24 16 43 12
43 -4 0 -13 -16 -20 -35 -10 -26 -17 -34 -29 -29 -8 3 -28 11 -44 17 l-29 10
44 23 c38 20 56 23 139 20 80 -2 113 -9 205 -40z m-338 -108 c8 -6 11 -21 7
-37 -11 -54 -13 -67 -19 -111 -4 -25 -10 -49 -14 -55 -5 -5 -9 -36 -10 -69 -1
-32 -7 -64 -14 -70 -7 -7 -42 -16 -77 -19 -36 -4 -88 -10 -116 -13 -30 -4 -54
-2 -57 3 -4 6 3 8 16 6 12 -2 42 1 67 6 45 10 45 10 -13 6 l-59 -5 7 32 c13
66 57 193 76 219 10 15 19 31 19 36 0 4 11 24 24 44 19 28 31 35 62 37 21 2
40 5 43 8 6 6 42 -6 58 -18z m131 -85 c14 -30 0 -78 -25 -81 -29 -4 -83 25
-83 45 0 46 88 75 108 36z m-90 -80 l27 -23 -27 0 c-16 0 -31 0 -35 0 -5 0 -7
17 -6 38 2 52 5 61 10 32 2 -14 16 -35 31 -47z m102 -95 c0 -17 -2 -17 -23 -4
-26 18 -72 23 -104 12 -19 -6 -23 -4 -23 14 0 12 -4 18 -10 15 -6 -3 -7 1 -4
9 3 9 10 16 16 16 5 0 6 -4 3 -10 -6 -10 49 -3 73 10 18 9 72 -39 72 -62z
m125 -198 c3 -6 -1 -7 -9 -4 -18 7 -21 14 -7 14 6 0 13 -4 16 -10z m435 -70
c0 -5 -6 -10 -14 -10 -8 0 -18 5 -21 10 -3 6 3 10 14 10 12 0 21 -4 21 -10z
m37 -6 c-3 -3 -12 -4 -19 -1 -8 3 -5 6 6 6 11 1 17 -2 13 -5z m94 -20 c30 -9
58 -20 64 -25 8 -8 -27 1 -125 31 -49 16 7 10 61 -6z"/>
<path d="M2110 3038 c0 -6 3 -8 7 -5 3 4 12 2 20 -4 11 -10 11 -15 1 -27 -11
-13 -10 -14 8 -2 19 12 29 39 15 41 -3 0 -16 2 -28 5 -13 2 -23 -1 -23 -8z"/>
<path d="M2098 3013 c6 -2 18 -2 25 0 6 3 1 5 -13 5 -14 0 -19 -2 -12 -5z"/>
<path d="M2090 2996 c0 -2 8 -10 18 -17 15 -13 16 -12 3 4 -13 16 -21 21 -21
13z"/>
<path d="M2060 2969 c0 -5 5 -7 10 -4 6 3 10 8 10 11 0 2 -4 4 -10 4 -5 0 -10
-5 -10 -11z"/>
<path d="M2096 2945 c-11 -8 -15 -15 -9 -15 6 0 16 7 23 15 16 19 11 19 -14 0z"/>
<path d="M1920 3049 c0 -5 5 -7 10 -4 6 3 10 8 10 11 0 2 -4 4 -10 4 -5 0 -10
-5 -10 -11z"/>
<path d="M1682 3034 c-11 -12 -9 -14 8 -14 11 0 20 4 20 9 0 17 -15 19 -28 5z"/>
<path d="M1685 2990 c4 -6 11 -8 16 -5 14 9 11 15 -7 15 -8 0 -12 -5 -9 -10z"/>
<path d="M1917 2923 c-10 -10 -8 -43 2 -43 20 0 41 13 41 25 0 7 -7 16 -16 19
-19 7 -19 7 -27 -1z"/>
<path d="M1710 2830 c8 -5 20 -10 25 -10 6 0 3 5 -5 10 -8 5 -19 10 -25 10 -5
0 -3 -5 5 -10z"/>
<path d="M1173 2804 c-7 -15 -7 -24 -1 -24 6 0 8 -7 4 -15 -3 -9 0 -15 9 -15
8 0 15 -7 15 -15 0 -9 10 -15 26 -15 17 0 23 -4 18 -12 -5 -8 -2 -9 10 -5 10
4 22 7 27 7 6 0 8 4 4 10 -3 5 -12 7 -20 4 -8 -4 -18 1 -21 10 -3 9 -10 14
-15 11 -12 -8 -40 40 -34 58 10 25 -10 27 -22 1z"/>
<path d="M1600 2786 c-19 -7 -69 -27 -110 -43 -41 -17 -88 -36 -105 -42 l-30
-11 30 6 c27 5 255 92 264 100 8 8 -15 3 -49 -10z"/>
<path d="M1699 2799 c-6 -29 -3 -49 6 -49 12 0 14 35 2 46 -4 4 -7 5 -8 3z"/>
<path d="M1700 2730 c-8 -5 -11 -10 -6 -10 5 0 2 -8 -5 -17 -12 -16 -12 -17 2
-5 9 7 25 10 35 6 18 -5 18 -5 1 6 -9 6 -15 15 -12 21 8 11 4 11 -15 -1z"/>
<path d="M1625 2700 c3 -5 10 -10 16 -10 5 0 9 5 9 10 0 6 -7 10 -16 10 -8 0
-12 -4 -9 -10z"/>
<path d="M1667 2634 c-10 -11 -9 -44 2 -44 15 0 19 13 12 33 -4 10 -10 15 -14
11z"/>
<path d="M1481 2623 c0 -5 4 -16 8 -27 7 -17 8 -17 24 -2 24 24 21 36 -8 36
-14 0 -25 -3 -24 -7z"/>
<path d="M3040 2541 c0 -5 6 -14 14 -20 10 -9 15 -8 19 3 3 8 3 17 0 20 -9 9
-33 7 -33 -3z"/>
<path d="M2150 1651 c0 -6 -8 -11 -19 -11 -21 0 -36 -15 -50 -52 -10 -26 -9
-26 20 -18 21 6 33 5 44 -6 8 -9 15 -11 15 -6 0 6 9 8 21 5 16 -4 17 -8 7 -14
-10 -7 -10 -9 2 -9 8 0 21 4 29 9 16 10 -36 30 -87 34 -16 1 -28 5 -25 10 8
14 48 7 101 -18 63 -29 70 -14 20 39 -34 35 -78 56 -78 37z m64 -41 c31 -31
29 -38 -6 -19 -11 6 -41 14 -67 18 l-46 8 35 10 c50 16 52 15 84 -17z"/>
<path d="M2297 1540 c-8 -22 -13 -40 -11 -40 7 0 36 71 31 76 -2 2 -11 -14
-20 -36z"/>
<path d="M2343 1568 c-13 -21 -31 -78 -24 -78 3 0 13 20 22 45 17 45 17 56 2
33z"/>
<path d="M2722 1550 c0 -19 2 -27 5 -17 2 9 2 25 0 35 -3 9 -5 1 -5 -18z"/>
<path d="M2801 1564 c0 -11 3 -14 6 -6 3 7 2 16 -1 19 -3 4 -6 -2 -5 -13z"/>
<path d="M2836 1559 c-9 -45 -16 -122 -10 -117 7 7 24 131 19 136 -2 3 -6 -6
-9 -19z"/>
<path d="M2557 1552 c-35 -21 -60 -84 -43 -106 13 -18 78 -32 124 -28 24 2 35
10 43 28 16 42 10 64 -23 95 -36 33 -60 35 -101 11z m66 -18 c-3 -9 0 -12 9
-9 8 3 21 -1 28 -10 16 -20 5 -32 -14 -16 -8 7 -36 13 -61 13 -53 0 -57 9 -12
29 37 17 58 14 50 -7z m36 -59 c20 -20 -2 -45 -39 -45 -44 0 -90 12 -84 21 3
5 0 9 -5 9 -20 0 -11 20 12 30 28 12 98 3 116 -15z"/>
<path d="M2562 1465 c2 -15 12 -21 42 -23 21 -2 43 1 48 6 6 6 -6 9 -32 8 -26
0 -45 5 -51 14 -8 12 -9 11 -7 -5z"/>
<path d="M2763 1510 c0 -36 2 -50 4 -32 2 17 2 47 0 65 -2 17 -4 3 -4 -33z"/>
<path d="M2951 1566 c2 -2 18 -6 34 -10 22 -5 26 -4 15 4 -14 9 -59 15 -49 6z"/>
<path d="M2368 1519 c-9 -21 -13 -39 -9 -39 8 0 35 69 29 75 -1 2 -11 -14 -20
-36z"/>
<path d="M2071 1544 c-3 -35 104 -74 152 -55 31 12 45 37 30 52 -7 7 -17 6
-31 -2 -17 -11 -30 -11 -64 -2 -50 13 -64 9 -22 -8 16 -6 46 -8 67 -6 27 4 37
1 37 -9 0 -35 -148 -10 -163 28 -3 7 -6 8 -6 2z"/>
<path d="M2865 1528 c-2 -13 -6 -43 -7 -67 l-3 -45 55 -13 c53 -13 56 -16 78
-66 21 -48 22 -40 6 29 -4 16 -3 25 3 21 19 -12 37 13 37 52 1 23 4 41 9 41 4
0 7 11 7 24 0 24 -18 37 -48 35 -10 -1 -6 -4 8 -8 14 -4 26 -16 28 -26 3 -18
2 -19 -8 -2 -6 9 -17 17 -24 17 -8 0 -19 7 -26 15 -8 10 -30 15 -61 15 -42 0
-49 -3 -54 -22z m75 3 c-20 -4 -42 -11 -49 -15 -13 -8 -11 -43 4 -80 6 -14 5
-18 -6 -14 -17 6 -23 39 -14 84 6 33 7 34 53 33 46 -1 46 -1 12 -8z m-20 -41
c0 -16 7 -20 30 -20 23 0 30 4 30 20 0 25 25 26 35 3 4 -13 -3 -26 -25 -45
-36 -33 -40 -34 -74 -7 -25 19 -34 48 -19 62 12 13 23 7 23 -13z m105 -47 c-2
-10 -4 -24 -4 -30 -1 -12 -51 -19 -51 -8 0 5 51 54 57 55 1 0 0 -8 -2 -17z"/>
<path d="M2408 1525 c-3 -11 -9 -29 -13 -40 -3 -11 1 -7 10 8 9 16 15 33 12
40 -2 6 -6 3 -9 -8z"/>
<path d="M2802 1510 c0 -19 2 -27 5 -17 2 9 2 25 0 35 -3 9 -5 1 -5 -18z"/>
<path d="M2423 1492 c-15 -48 -11 -51 10 -7 9 19 13 36 9 39 -4 2 -13 -12 -19
-32z"/>
<path d="M2721 1498 c0 -9 -4 -25 -7 -35 -5 -14 -4 -15 5 -7 7 7 11 22 8 35
-2 13 -5 16 -6 7z"/>
<path d="M2791 1454 c0 -11 3 -14 6 -6 3 7 2 16 -1 19 -3 4 -6 -2 -5 -13z"/>
<path d="M2228 1427 c-10 -19 -38 -113 -38 -129 0 -4 17 -10 38 -13 20 -4 50
-11 66 -16 38 -12 44 -5 62 70 16 69 14 76 -18 84 -13 3 -40 10 -61 15 -33 9
-39 8 -49 -11z m90 -12 c3 -3 1 -10 -6 -17 -8 -8 -8 -17 -1 -30 20 -38 -34
-66 -62 -32 -10 12 -10 20 -1 35 15 23 15 39 2 39 -5 0 -10 -7 -10 -17 0 -9
-3 -14 -6 -10 -3 3 -3 15 1 27 6 19 12 21 42 17 20 -4 38 -9 41 -12z m32 -32
c-1 -22 -17 -93 -22 -99 -9 -8 -118 19 -117 30 1 6 5 22 9 36 l8 25 1 -28 c1
-39 40 -56 77 -33 22 15 25 22 19 52 -5 27 -3 34 10 34 8 0 15 -8 15 -17z"/>
<path d="M2262 1378 c-18 -18 -15 -28 7 -28 26 0 34 15 18 29 -10 8 -17 7 -25
-1z"/>
<path d="M2798 1404 c-3 -2 -3 -26 0 -51 4 -36 1 -49 -13 -59 -18 -13 -12 -38
8 -31 7 2 18 -2 25 -9 7 -7 19 -11 26 -8 18 7 27 54 11 54 -8 0 -11 -8 -8 -20
4 -14 0 -20 -10 -20 -19 0 -32 56 -24 105 5 32 -3 52 -15 39z"/>
<path d="M2531 1363 c-16 -58 -12 -75 5 -19 9 26 13 50 10 53 -2 3 -9 -12 -15
-34z"/>
<path d="M2577 1394 c-4 -4 -7 -14 -7 -23 0 -11 3 -12 11 -4 6 6 10 16 7 23
-2 6 -7 8 -11 4z"/>
<path d="M2616 1354 c-3 -26 -4 -49 -2 -52 3 -2 8 17 11 43 4 25 5 48 3 51 -3
2 -8 -17 -12 -42z"/>
<path d="M2671 1354 c-7 -26 -10 -48 -7 -51 5 -5 11 14 21 65 10 49 -1 38 -14
-14z"/>
<path d="M2836 1384 c-11 -7 -17 -17 -13 -20 4 -4 13 -1 22 6 13 11 14 8 9
-19 -5 -23 -2 -32 10 -37 9 -3 16 -13 16 -21 0 -8 5 -11 11 -8 7 5 3 15 -10
29 -25 26 -26 39 -6 60 9 9 11 17 5 21 -5 3 -10 0 -10 -7 0 -9 -2 -10 -8 -1
-5 8 -12 8 -26 -3z"/>
<path d="M2717 1376 c-4 -10 -7 -32 -6 -49 1 -31 1 -31 10 7 10 43 7 72 -4 42z"/>
<path d="M2767 1373 c-8 -15 -19 -88 -12 -81 4 4 11 25 15 48 7 38 6 49 -3 33z"/>
<path d="M2481 1353 c0 -12 -4 -30 -7 -40 -5 -17 -5 -17 6 0 6 10 9 28 7 40
-4 22 -4 22 -6 0z"/>
<path d="M2953 1332 c7 -22 16 -44 20 -48 13 -13 -5 61 -19 75 -11 12 -11 7
-1 -27z"/>
<path d="M2567 1344 c-4 -4 -7 -14 -7 -23 0 -11 3 -12 11 -4 6 6 10 16 7 23
-2 6 -7 8 -11 4z"/>
<path d="M2930 1299 c7 -11 14 -19 16 -16 7 7 -7 37 -17 37 -6 0 -5 -9 1 -21z"/>
<path d="M2658 1253 c-35 -18 -46 -39 -50 -94 -3 -41 -1 -44 38 -66 53 -30
122 -21 141 17 29 57 4 140 -42 140 -8 0 -15 5 -15 10 0 14 -40 11 -72 -7z
m27 -93 c-3 -5 -1 -10 4 -10 6 0 11 4 11 9 0 11 35 2 65 -16 16 -10 18 -15 9
-30 -16 -26 -101 -29 -133 -4 -29 22 -23 56 9 48 11 -3 23 -1 26 4 3 5 7 9 10
9 3 0 2 -4 -1 -10z"/>
<path d="M2663 1123 c17 -17 84 -20 99 -4 11 10 8 11 -14 6 -15 -4 -33 -3 -39
1 -7 4 -23 8 -36 9 -18 0 -20 -2 -10 -12z"/>
<path d="M2090 1250 c0 -5 5 -10 11 -10 5 0 7 5 4 10 -3 6 -8 10 -11 10 -2 0
-4 -4 -4 -10z"/>
<path d="M2189 1243 c-1 -10 -1 -22 0 -26 1 -4 -3 -17 -9 -27 -7 -13 -7 -20
-1 -20 10 0 14 12 26 73 2 9 -1 17 -6 17 -5 0 -10 -8 -10 -17z"/>
<path d="M2432 1243 c-14 -26 -46 -143 -40 -148 2 -3 18 -8 35 -11 33 -7 34
-5 48 81 3 17 8 42 11 58 3 15 1 27 -4 27 -6 0 -17 3 -25 6 -9 3 -19 -2 -25
-13z m37 -10 c-16 -4 -39 -69 -39 -109 0 -31 15 -4 27 49 l12 52 -5 -49 c-3
-27 -8 -55 -11 -62 -6 -16 -53 -19 -53 -3 0 5 5 7 12 3 6 -4 8 -3 5 3 -4 6 0
29 8 52 15 42 15 44 15 61 0 6 10 9 23 9 15 -1 17 -3 6 -6z"/>
<path d="M2220 1233 c0 -10 -3 -29 -7 -43 -3 -14 -3 -22 1 -18 12 11 25 78 15
78 -5 0 -9 -8 -9 -17z"/>
<path d="M2244 1206 c-3 -21 -4 -39 -1 -42 3 -4 9 10 13 30 3 21 4 39 1 42 -3
4 -9 -10 -13 -30z"/>
<path d="M2552 1204 c-20 -78 -22 -94 -14 -94 8 0 34 121 27 128 -2 2 -8 -13
-13 -34z"/>
<path d="M2883 1223 c-14 -3 -25 -14 -29 -29 -4 -15 -13 -24 -25 -24 -10 0
-19 -4 -19 -10 0 -5 6 -10 13 -10 9 0 13 -17 12 -57 0 -38 4 -57 13 -59 7 -1
8 0 2 3 -14 7 -13 30 3 37 10 5 10 7 0 12 -16 7 -17 44 -2 44 6 0 9 7 5 15 -3
8 -1 15 4 15 6 0 9 3 9 8 -4 26 3 42 20 42 11 0 23 5 26 10 3 6 3 9 -2 9 -4
-1 -18 -4 -30 -6z"/>
<path d="M2508 1208 c-4 -8 -9 -37 -12 -64 l-5 -49 14 55 c14 52 15 92 3 58z"/>
<path d="M2285 1180 c-4 -17 -5 -34 -2 -36 2 -3 7 10 11 27 8 42 0 50 -9 9z"/>
<path d="M2317 1183 c-4 -3 -7 -16 -6 -27 0 -19 1 -19 10 3 10 24 8 36 -4 24z"/>
<path d="M2570 1169 c0 -11 5 -17 10 -14 6 3 10 13 10 21 0 8 -4 14 -10 14 -5
0 -10 -9 -10 -21z"/>
<path d="M2915 1170 l-20 -9 20 0 c11 0 27 4 35 9 13 9 13 10 0 9 -8 0 -24 -4
-35 -9z"/>
<path d="M2566 1125 c-3 -8 -1 -15 4 -15 6 0 10 7 10 15 0 8 -2 15 -4 15 -2 0
-6 -7 -10 -15z"/>
<path d="M2920 1130 c-24 -8 -23 -8 8 -9 17 -1 32 4 32 9 0 11 -5 11 -40 0z"/>
<path d="M2906 1091 c-15 -6 -16 -10 -7 -15 7 -5 17 -4 23 2 6 6 17 8 24 5 8
-3 14 0 14 6 0 12 -25 13 -54 2z"/>
<path d="M2928 1053 c-21 -5 -24 -23 -5 -23 7 0 22 7 33 15 20 15 9 18 -28 8z"/>
<path d="M1850 1400 c-6 -11 -8 -20 -6 -20 3 0 10 9 16 20 6 11 8 20 6 20 -3
0 -10 -9 -16 -20z"/>
<path d="M1950 1381 c0 -6 4 -13 10 -16 6 -3 7 1 4 9 -7 18 -14 21 -14 7z"/>
<path d="M2092 1428 c2 -7 8 -16 13 -20 6 -4 0 -8 -12 -8 -13 0 -23 -4 -23
-10 0 -5 13 -10 29 -10 27 0 29 2 22 27 -7 27 -34 47 -29 21z"/>
<path d="M4908 4054 c-3 -3 -27 -7 -53 -9 -26 -2 -55 -11 -64 -19 -10 -9 -23
-16 -29 -16 -11 0 -42 -38 -42 -52 0 -5 5 -8 10 -8 6 0 9 5 8 12 -2 6 7 17 19
23 13 7 31 19 41 28 12 11 29 14 57 11 22 -2 47 -5 55 -6 8 0 17 -5 20 -9 3
-5 19 -4 35 0 l30 9 -30 2 c-36 2 -81 18 -53 19 20 1 35 21 15 21 -7 0 -16 -3
-19 -6z"/>
<path d="M3758 3980 c-2 -22 0 -40 4 -40 5 0 8 18 8 40 0 22 -2 40 -4 40 -2 0
-6 -18 -8 -40z"/>
<path d="M4901 3984 c0 -11 3 -14 6 -6 3 7 2 16 -1 19 -3 4 -6 -2 -5 -13z"/>
<path d="M4830 3984 c0 -13 18 -39 24 -34 2 3 -2 14 -10 24 -8 11 -14 16 -14
10z"/>
<path d="M4921 3974 c0 -11 3 -14 6 -6 3 7 2 16 -1 19 -3 4 -6 -2 -5 -13z"/>
<path d="M1290 3965 c7 -8 16 -15 21 -15 5 0 9 7 9 15 0 9 -9 15 -21 15 -18 0
-19 -2 -9 -15z"/>
<path d="M4042 3958 c-6 -8 -7 -19 -3 -26 6 -10 11 -9 21 3 9 11 10 19 3 26
-7 7 -14 5 -21 -3z"/>
<path d="M1095 3950 c-3 -5 3 -10 14 -10 12 0 21 5 21 10 0 6 -6 10 -14 10 -8
0 -18 -4 -21 -10z"/>
<path d="M4890 3940 c-8 -5 -28 -10 -44 -10 -16 0 -27 -3 -23 -6 9 -9 97 6 97
17 0 12 -11 11 -30 -1z"/>
<path d="M1785 3920 c-3 -5 3 -10 14 -10 12 0 21 5 21 10 0 6 -6 10 -14 10 -8
0 -18 -4 -21 -10z"/>
<path d="M3746 3899 c-8 -42 0 -50 9 -9 4 17 5 34 2 36 -2 3 -7 -10 -11 -27z"/>
<path d="M4655 3876 c17 -9 46 -15 65 -14 l35 1 -40 7 c-22 5 -51 11 -65 14
-21 5 -20 4 5 -8z"/>
<path d="M1930 3875 c-1 -5 -2 -13 -1 -17 0 -5 -6 -8 -14 -8 -20 0 -19 -26 1
-34 15 -6 15 -4 3 11 -9 11 -10 14 -1 9 14 -8 27 16 19 36 -3 7 -6 9 -7 3z"/>
<path d="M4783 3863 c9 -2 25 -2 35 0 9 3 1 5 -18 5 -19 0 -27 -2 -17 -5z"/>
<path d="M5151 3733 c-22 -242 -32 -347 -38 -388 -4 -28 -2 -37 5 -30 6 6 13
48 17 95 4 47 9 88 11 92 3 4 9 69 14 145 6 76 13 157 16 181 4 23 2 42 -3 42
-5 0 -15 -62 -22 -137z"/>
<path d="M1955 3840 c-3 -5 -2 -10 4 -10 5 0 13 5 16 10 3 6 2 10 -4 10 -5 0
-13 -4 -16 -10z"/>
<path d="M2020 3835 c-7 -8 -9 -15 -4 -15 5 0 2 -5 -6 -10 -13 -8 -12 -10 4
-10 12 0 16 5 12 15 -3 8 2 19 12 24 9 6 12 11 6 11 -6 0 -17 -7 -24 -15z"/>
<path d="M2045 3809 c-4 -6 -5 -12 -2 -15 2 -3 7 2 10 11 7 17 1 20 -8 4z"/>
<path d="M1175 3790 c3 -5 13 -10 21 -10 8 0 14 5 14 10 0 6 -9 10 -21 10 -11
0 -17 -4 -14 -10z"/>
<path d="M4015 3765 c3 -22 8 -52 11 -67 5 -24 2 -28 -18 -28 -13 0 -62 -12
-110 -26 l-87 -27 -42 22 c-23 12 -43 20 -46 18 -5 -6 49 -40 64 -40 7 0 13
-4 13 -8 0 -10 -125 -83 -202 -118 -32 -15 -56 -29 -54 -32 3 -3 7 -14 9 -25
6 -30 29 -74 37 -69 4 3 7 -3 6 -12 0 -9 5 -18 13 -21 8 -3 11 0 7 7 -4 6 -3
11 2 11 5 0 12 8 16 18 3 9 9 23 12 31 4 9 2 11 -5 6 -7 -4 -16 -17 -21 -29
-6 -15 -9 -16 -9 -5 -1 20 66 82 79 74 5 -3 2 -14 -8 -23 -9 -10 -26 -35 -36
-57 -10 -22 -23 -48 -28 -58 -17 -33 -21 -152 -8 -206 12 -51 58 -129 109
-185 38 -42 117 -90 191 -116 70 -24 215 -33 279 -16 l34 8 -7 -38 c-4 -22 -9
-48 -12 -59 -3 -15 4 -24 33 -37 21 -9 49 -20 63 -24 14 -4 28 -12 33 -18 4
-7 10 -2 14 14 11 41 56 120 116 203 31 42 59 87 63 100 6 19 9 16 31 -28 13
-28 20 -41 17 -30 -27 83 -28 94 -9 152 24 75 32 237 15 300 -22 84 -69 159
-144 231 -84 81 -146 106 -291 117 -88 6 -125 21 -111 44 4 6 14 11 22 11 9 0
14 6 12 13 -3 6 -11 12 -19 12 -8 0 -20 11 -27 25 -12 23 -12 22 -7 -15z m105
-109 c0 -9 -50 -12 -62 -5 -8 6 1 9 25 9 20 0 37 -2 37 -4z m-125 -16 c-3 -5
-21 -9 -38 -9 l-32 2 35 7 c19 4 36 8 38 9 2 0 0 -3 -3 -9z m182 4 c-3 -3 -12
-4 -19 -1 -8 3 -5 6 6 6 11 1 17 -2 13 -5z m122 -19 c16 -9 20 -14 10 -15 -9
0 -19 3 -23 8 -4 4 -29 12 -54 19 l-47 12 44 -5 c24 -2 55 -11 70 -19z m-373
-7 c4 -6 3 -8 -4 -5 -14 9 -43 -3 -36 -14 3 -5 -2 -6 -10 -3 -8 3 -23 1 -33
-4 -17 -10 -17 -11 1 -18 12 -5 30 -1 47 9 16 9 31 12 33 8 3 -4 -15 -15 -40
-24 -24 -9 -44 -12 -44 -7 0 6 -5 10 -11 10 -5 0 -8 -4 -4 -9 7 -12 -42 -51
-63 -51 -8 0 -12 3 -9 7 4 3 1 13 -6 21 -10 13 -9 14 3 7 22 -14 52 -17 45 -5
-3 5 2 10 12 10 15 0 15 2 4 9 -9 6 -22 6 -33 0 -10 -5 -18 -7 -18 -4 0 6 138
74 152 75 4 0 10 -5 14 -12z m439 -20 c4 -3 1 -9 -6 -14 -8 -4 -10 -3 -5 5 6
8 0 10 -18 6 -50 -10 -81 -14 -68 -9 6 3 10 9 8 12 -5 9 81 8 89 0z m-330 -48
c13 -26 20 -29 48 -24 28 4 29 3 9 -6 -22 -9 -22 -10 -5 -37 9 -16 34 -50 53
-78 20 -27 42 -66 50 -85 18 -46 30 -61 44 -53 6 3 8 3 4 -2 -4 -4 7 -28 24
-54 31 -45 32 -45 39 -21 4 14 5 1 2 -27 -3 -33 -2 -53 5 -53 13 0 25 29 24
55 l-2 20 9 -20 c5 -13 3 -27 -5 -40 -11 -17 -11 -25 1 -50 14 -29 12 -34 -45
-146 -59 -116 -60 -116 -107 -130 -88 -26 -245 -4 -348 48 -88 45 -191 167
-215 256 -17 65 -7 163 24 229 36 77 123 161 204 199 103 47 105 48 132 52 33
4 37 1 55 -33z m405 -34 c-7 -7 -15 -5 -25 7 -8 9 -10 12 -3 7 23 -19 31 -10
12 13 l-19 22 23 -19 c15 -13 19 -23 12 -30z m-729 4 c-22 -19 -41 -26 -41
-15 0 5 51 34 60 34 3 0 -6 -9 -19 -19z m436 14 c-3 -3 -12 -4 -19 -1 -8 3 -5
6 6 6 11 1 17 -2 13 -5z m-20 -30 c-3 -3 -12 -4 -19 -1 -8 3 -5 6 6 6 11 1 17
-2 13 -5z m343 -4 c0 -5 -4 -10 -10 -10 -5 0 -10 5 -10 10 0 6 5 10 10 10 6 0
10 -4 10 -10z m-811 -21 c-12 -7 -12 -9 0 -9 11 0 10 -5 -5 -19 -10 -10 -23
-16 -28 -13 -5 2 -1 9 8 14 17 9 13 28 -5 28 -6 0 -8 -4 -5 -8 2 -4 -7 -9 -22
-10 l-27 -1 28 15 c15 8 32 12 37 9 6 -3 10 -1 10 5 0 6 5 8 11 4 8 -4 7 -9
-2 -15z m76 10 c18 -8 18 -8 -5 -6 -19 1 -24 -2 -22 -17 3 -15 1 -16 -11 -5
-11 10 -12 18 -5 27 12 14 16 14 43 1z m440 -9 c-2 -26 -41 -56 -48 -37 -6 16
2 37 15 37 6 0 6 -6 -2 -15 -14 -16 -10 -18 14 -9 9 3 13 10 10 15 -3 5 -2 14
1 19 9 15 12 12 10 -10z m65 -14 c0 -2 -7 -7 -16 -10 -8 -3 -12 -2 -9 4 6 10
25 14 25 6z m-631 -52 c-6 -8 -15 -12 -18 -8 -3 4 0 9 7 11 6 3 9 10 6 15 -4
7 -2 8 5 4 9 -6 9 -11 0 -22z m561 5 c-7 -11 -14 -18 -17 -15 -3 3 0 12 7 21
18 21 23 19 10 -6z m78 12 c11 -6 10 -10 -4 -15 -9 -3 -19 -4 -22 -1 -3 3 1 5
9 5 11 0 11 2 -1 10 -8 5 -10 10 -5 10 6 0 16 -4 23 -9z m-50 -26 c0 -14 -4
-27 -8 -30 -3 -2 -5 6 -4 18 1 12 3 25 3 30 2 18 9 5 9 -18z m112 -5 c6 -11 8
-20 6 -20 -3 0 -10 9 -16 20 -6 11 -8 20 -6 20 3 0 10 -9 16 -20z m-22 -16 c7
-14 8 -23 3 -20 -5 3 -12 -1 -15 -10 -4 -9 -9 -14 -12 -11 -3 3 -1 15 6 26 7
14 7 21 0 21 -5 0 -10 5 -10 10 0 19 17 10 28 -16z m-45 -21 c-3 -7 -10 -10
-16 -6 -8 5 -8 8 0 10 7 3 9 12 6 21 -4 14 -3 14 5 3 6 -8 8 -20 5 -28z m-46
-25 c-3 -8 -6 -5 -6 6 -1 11 2 17 5 13 3 -3 4 -12 1 -19z m14 -21 c-10 -9 -11
-8 -5 6 3 10 9 15 12 12 3 -3 0 -11 -7 -18z m25 -19 c-9 -12 -16 -19 -16 -15
0 11 24 47 28 42 2 -2 -3 -14 -12 -27z m115 -71 c-10 -9 -11 -8 -5 6 3 10 9
15 12 12 3 -3 0 -11 -7 -18z m-61 -2 c-7 -9 -15 -13 -19 -10 -3 3 1 10 9 15
21 14 24 12 10 -5z m110 5 c0 -5 -2 -10 -4 -10 -3 0 -8 5 -11 10 -3 6 -1 10 4
10 6 0 11 -4 11 -10z m-20 -20 c0 -5 -5 -10 -11 -10 -5 0 -7 5 -4 10 3 6 8 10
11 10 2 0 4 -4 4 -10z m0 -35 c0 -8 -4 -15 -10 -15 -5 0 -7 7 -4 15 4 8 8 15
10 15 2 0 4 -7 4 -15z"/>
<path d="M4010 3422 c0 -10 33 -42 44 -42 9 0 -27 49 -36 50 -5 0 -8 -4 -8 -8z"/>
<path d="M4150 3246 c0 -12 45 -76 53 -76 5 0 0 14 -10 31 -18 31 -43 57 -43
45z"/>
<path d="M3720 3143 c-37 -58 -36 -115 3 -148 13 -11 27 -28 30 -37 7 -20 27
-25 27 -7 0 6 9 9 20 6 24 -6 87 9 96 24 3 5 -14 32 -39 58 -25 27 -57 71 -71
100 -15 28 -29 51 -31 51 -3 0 -19 -21 -35 -47z m135 -120 c39 -37 34 -45 -34
-53 -39 -4 -48 -1 -79 27 -42 38 -46 81 -13 136 l23 37 34 -57 c19 -32 50 -72
69 -90z"/>
<path d="M1349 3770 c-54 -10 -97 -45 -105 -85 -3 -18 -3 -39 1 -45 3 -6 8
-41 10 -78 4 -85 16 -114 56 -143 67 -47 167 -8 190 75 17 57 20 155 7 205
-15 59 -77 86 -159 71z m122 -39 c31 -32 30 -54 -3 -72 -14 -8 -23 -8 -31 0
-13 13 -93 13 -122 1 -14 -6 3 -9 55 -10 l75 -2 -48 -10 c-87 -19 -146 6 -133
57 10 38 61 65 124 65 46 0 58 -4 83 -29z m25 -143 c-11 -143 -23 -158 -123
-158 -57 0 -64 2 -80 27 -15 22 -38 170 -28 181 2 2 18 -3 36 -11 42 -17 112
-11 153 14 17 9 35 18 40 18 4 1 6 -32 2 -71z m-119 -174 c-3 -3 -12 -4 -19
-1 -8 3 -5 6 6 6 11 1 17 -2 13 -5z"/>
<path d="M1368 3553 c7 -3 16 -2 19 1 4 3 -2 6 -13 5 -11 0 -14 -3 -6 -6z"/>
<path d="M1350 3500 c0 -5 12 -10 28 -9 24 0 25 1 7 9 -27 12 -35 12 -35 0z"/>
<path d="M1823 3741 c-31 -15 -44 -27 -48 -48 -4 -15 -8 -34 -11 -40 -2 -7 1
-13 6 -13 5 0 7 -6 4 -13 -9 -25 35 -52 82 -50 24 1 43 -2 41 -5 -1 -4 6 -18
15 -31 24 -34 103 -41 138 -13 20 16 25 29 25 66 0 57 -19 77 -73 79 -36 2
-42 5 -47 29 -12 52 -67 68 -132 39z m110 -21 c8 -11 14 -35 13 -53 -1 -27 -7
-35 -38 -50 -50 -24 -93 -15 -113 23 -20 39 -19 47 10 75 32 33 107 35 128 5z
m125 -93 c17 -36 7 -64 -29 -83 -37 -19 -83 -11 -103 18 -13 18 -12 23 10 45
13 13 24 30 24 38 0 35 79 20 98 -18z"/>
<path d="M1831 3699 c-22 -20 -22 -22 -4 -41 28 -31 51 -40 72 -29 27 15 34
41 16 67 -19 30 -54 31 -84 3z m67 -1 c33 -33 -7 -71 -47 -46 -26 16 -27 34
-3 47 23 14 36 13 50 -1z"/>
<path d="M1958 3615 c-14 -31 3 -55 41 -55 47 0 65 34 35 64 -24 25 -63 20
-76 -9z m75 -9 c3 -8 0 -19 -6 -24 -24 -19 -77 4 -63 27 10 16 63 13 69 -3z"/>
<path d="M2100 3750 c12 -10 11 -11 -8 -7 -15 4 -22 1 -19 -6 2 -7 -3 -18 -10
-26 -8 -7 -11 -16 -7 -20 4 -3 9 0 11 7 4 10 10 9 26 -5 11 -10 17 -12 13 -5
-4 6 -2 12 4 12 6 0 8 5 5 10 -4 6 -11 7 -17 4 -7 -4 -8 -2 -4 5 4 6 12 8 18
5 6 -4 8 1 6 11 -1 10 -10 20 -18 22 -13 4 -13 3 0 -7z"/>
<path d="M1981 3737 c-6 -8 -4 -16 4 -24 11 -10 15 -9 20 8 6 19 8 19 19 3 11
-15 13 -15 13 0 0 9 -3 16 -6 17 -3 0 -14 2 -23 4 -9 2 -21 -2 -27 -8z"/>
<path d="M2115 3666 c-21 -21 -23 -29 -15 -57 12 -42 19 -49 63 -56 29 -4 40
-1 61 20 30 30 34 77 10 101 -25 25 -90 21 -119 -8z m109 -5 c18 -20 11 -56
-18 -80 -13 -11 -22 -10 -53 6 -45 22 -52 44 -22 72 28 26 70 27 93 2z"/>
<path d="M2139 3654 c-18 -22 1 -49 36 -49 35 0 54 27 36 49 -8 9 -24 16 -36
16 -12 0 -28 -7 -36 -16z m60 -7 c6 -8 8 -17 4 -20 -12 -12 -53 -7 -53 6 0 28
30 37 49 14z"/>
<path d="M2478 3673 c46 -2 118 -2 160 0 42 1 5 3 -83 3 -88 0 -123 -2 -77 -3z"/>
<path d="M1580 3640 c0 -5 6 -10 14 -10 8 0 18 5 21 10 3 6 -3 10 -14 10 -12
0 -21 -4 -21 -10z"/>
<path d="M1025 3620 c-4 -6 5 -10 19 -10 14 0 26 5 26 10 0 6 -9 10 -19 10
-11 0 -23 -4 -26 -10z"/>
<path d="M2507 3610 c50 -4 111 -3 135 0 27 5 -6 7 -92 7 -132 0 -133 0 -43
-7z"/>
<path d="M2315 3520 c-3 -5 1 -10 9 -10 8 0 18 5 21 10 3 6 -1 10 -9 10 -8 0
-18 -4 -21 -10z"/>
<path d="M2548 3375 c2 -82 6 -152 8 -154 7 -8 2 182 -6 244 -4 36 -5 0 -2
-90z"/>
<path d="M2135 3490 c-3 -5 -21 -10 -38 -11 -18 0 -41 -4 -52 -9 -16 -7 -11
-9 22 -9 43 -1 93 16 93 31 0 11 -17 10 -25 -2z"/>
<path d="M1552 3453 c-9 -17 -9 -22 4 -27 20 -8 34 1 34 20 0 8 -4 13 -9 10
-5 -4 -11 0 -13 6 -3 8 -9 5 -16 -9z"/>
<path d="M5005 3439 c-4 -6 -4 -13 -1 -16 3 -4 6 -1 6 5 0 6 8 13 18 15 15 4
15 5 0 6 -9 0 -20 -4 -23 -10z"/>
<path d="M1155 3420 c-3 -5 3 -10 14 -10 12 0 21 5 21 10 0 6 -6 10 -14 10 -8
0 -18 -4 -21 -10z"/>
<path d="M2250 3390 c-28 -9 -27 -10 15 -15 17 -1 24 -1 17 2 -6 3 -10 9 -6
14 3 5 4 9 2 8 -2 -1 -14 -5 -28 -9z"/>
<path d="M3018 3374 c-3 -5 0 -22 7 -39 10 -23 13 -25 13 -10 1 28 -13 61 -20
49z"/>
<path d="M1757 3363 c-13 -12 -7 -23 13 -23 13 0 18 5 14 15 -7 16 -17 19 -27
8z"/>
<path d="M998 3348 c9 -9 15 -9 24 0 9 9 7 12 -12 12 -19 0 -21 -3 -12 -12z"/>
<path d="M2782 3340 c0 -14 4 -36 8 -50 l8 -25 0 25 c0 14 -4 36 -8 50 l-8 25
0 -25z"/>
<path d="M1910 3340 c0 -5 5 -10 10 -10 6 0 10 5 10 10 0 6 -4 10 -10 10 -5 0
-10 -4 -10 -10z"/>
<path d="M1480 3320 c0 -5 9 -10 19 -10 11 0 23 5 26 10 4 6 -5 10 -19 10 -14
0 -26 -4 -26 -10z"/>
<path d="M3458 3284 c-32 -7 -76 -25 -98 -39 -41 -26 -60 -31 -60 -16 0 10
-48 2 -55 -9 -9 -15 81 -7 115 10 69 35 86 40 155 54 48 9 59 14 35 14 -19 0
-61 -6 -92 -14z"/>
<path d="M5060 3259 c-29 -29 -49 -39 -107 -53 -80 -18 -130 -20 -185 -7 -40
9 -54 -2 -15 -13 68 -18 212 -3 282 30 26 12 74 71 63 77 -1 1 -19 -14 -38
-34z"/>
<path d="M3155 3270 c-3 -5 -18 -10 -33 -10 -46 0 -71 -11 -77 -34 -4 -11 -11
-31 -17 -43 -9 -17 -8 -29 1 -47 8 -13 11 -29 7 -34 -3 -6 -2 -13 4 -17 13 -8
13 31 0 56 -8 14 -7 25 5 41 8 13 15 30 15 40 0 14 8 18 38 18 20 0 45 7 55
14 13 10 43 12 120 9 56 -3 99 -2 96 1 -11 11 -207 17 -214 6z"/>
<path d="M4631 3235 c12 -19 29 -35 38 -35 22 0 41 -19 41 -42 0 -11 15 -28
35 -39 19 -11 37 -29 40 -39 3 -10 17 -25 30 -34 14 -9 25 -23 25 -31 0 -8 12
-18 26 -21 14 -4 37 -24 52 -46 59 -88 92 -144 92 -155 0 -6 8 -14 18 -17 11
-4 25 -18 33 -33 8 -14 26 -39 42 -54 22 -22 27 -37 27 -74 0 -36 5 -51 25
-69 23 -21 25 -30 21 -85 -4 -67 -24 -121 -44 -121 -6 0 -19 -18 -28 -40 -13
-33 -23 -42 -54 -50 -21 -6 -51 -17 -67 -25 -15 -8 -32 -15 -37 -15 -5 0 -28
-9 -50 -20 -23 -10 -57 -20 -76 -21 -19 -2 -47 -8 -62 -16 -15 -7 -42 -13 -61
-13 -19 0 -51 -7 -70 -15 -20 -8 -55 -15 -78 -15 -26 0 -52 -8 -71 -21 -24
-18 -43 -21 -100 -20 -56 1 -78 -3 -107 -20 -26 -16 -58 -23 -116 -27 -44 -2
-92 -11 -107 -18 -15 -8 -47 -14 -71 -14 -32 0 -56 -8 -91 -31 -43 -29 -52
-31 -104 -26 -31 3 -76 1 -100 -5 -41 -10 -45 -9 -75 19 -18 16 -44 34 -59 41
-19 8 -29 21 -33 45 -5 24 -16 39 -38 52 -39 22 -47 33 -47 63 0 13 -9 35 -20
49 -11 14 -20 37 -20 50 0 13 -4 22 -9 18 -14 -8 -2 -57 20 -81 10 -11 19 -30
19 -43 0 -34 16 -57 48 -70 21 -9 31 -22 38 -49 6 -27 17 -41 39 -51 17 -7 42
-25 57 -39 24 -22 32 -24 70 -17 24 4 53 6 66 6 12 -1 41 -2 65 -3 32 -2 52 4
84 26 28 18 62 30 100 35 32 4 68 12 80 19 12 7 53 12 91 12 54 0 79 5 118 25
42 22 57 24 107 19 50 -6 62 -4 87 15 19 14 44 21 72 21 24 0 61 9 84 19 23
10 53 17 67 14 14 -3 40 2 58 11 18 9 46 16 64 16 18 0 53 11 79 25 26 14 56
25 66 25 10 0 21 4 25 9 3 5 29 17 58 25 47 14 56 21 73 56 10 22 24 40 30 40
17 0 42 69 49 136 6 56 5 63 -16 77 -17 12 -24 31 -30 74 -6 47 -14 63 -38 85
-17 15 -31 32 -31 38 0 6 -12 23 -27 38 -16 15 -44 52 -63 83 -69 111 -89 137
-114 143 -14 3 -26 13 -26 21 0 7 -8 20 -18 27 -9 7 -25 26 -35 41 -10 15 -29
32 -41 37 -13 5 -28 23 -34 40 -7 20 -21 34 -40 41 -16 5 -34 21 -40 34 -7 14
-16 25 -21 25 -6 0 -1 -16 10 -35z"/>
<path d="M2802 3240 c0 -14 4 -38 8 -55 l8 -30 0 30 c0 17 -4 41 -8 55 l-8 25
0 -25z"/>
<path d="M3143 3216 c-41 -23 -78 -59 -65 -63 6 -3 13 -14 13 -26 1 -12 5 -4
8 18 6 37 9 41 54 56 36 12 44 18 29 21 -10 3 -28 0 -39 -6z"/>
<path d="M4611 3183 c2 -6 61 -71 131 -145 70 -73 137 -146 150 -163 12 -16
32 -39 43 -50 71 -73 175 -302 175 -385 0 -23 -8 -48 -21 -64 -27 -35 -117
-93 -179 -117 -61 -23 -388 -104 -487 -120 -40 -6 -70 -16 -67 -21 3 -5 14 -6
25 -3 11 4 32 8 47 10 15 2 56 11 92 21 35 9 76 18 90 19 14 2 64 14 112 28
49 14 90 21 94 16 7 -13 25 -11 21 2 -2 13 79 40 99 32 8 -3 14 1 14 8 0 8 17
24 39 36 30 17 41 19 51 10 10 -9 11 -9 6 1 -5 8 8 26 35 51 40 36 42 40 40
90 -1 29 -8 68 -15 86 -10 24 -11 36 -3 44 8 8 7 11 -6 11 -16 0 -41 64 -39
103 0 9 -5 17 -11 17 -13 0 -94 119 -89 132 1 5 -4 8 -12 8 -22 0 -87 93 -73
103 8 6 6 7 -4 4 -12 -4 -44 22 -101 81 -47 48 -89 94 -94 102 -13 21 -68 68
-63 53z"/>
<path d="M2561 3113 c-1 -40 3 -73 7 -73 5 0 7 28 4 63 -5 89 -10 94 -11 10z"/>
<path d="M4950 3143 c0 -12 123 -194 128 -189 4 5 -117 196 -125 196 -1 0 -3
-3 -3 -7z"/>
<path d="M1290 3108 c0 -15 24 -58 32 -58 8 0 1 17 -22 50 -5 8 -10 12 -10 8z"/>
<path d="M1340 3104 c0 -5 7 -18 15 -28 12 -16 15 -17 15 -4 0 8 -7 21 -15 28
-8 7 -15 9 -15 4z"/>
<path d="M1402 3091 c7 -11 16 -17 20 -14 10 5 -10 33 -23 33 -5 0 -4 -9 3
-19z"/>
<path d="M1455 3100 c3 -5 8 -10 11 -10 2 0 4 5 4 10 0 6 -5 10 -11 10 -5 0
-7 -4 -4 -10z"/>
<path d="M1246 3070 c10 -16 20 -27 23 -25 6 7 -21 55 -31 55 -5 0 -1 -13 8
-30z"/>
<path d="M812 2840 c0 -249 4 -320 17 -320 7 0 3 250 -8 440 -8 124 -8 114 -9
-120z"/>
<path d="M1186 3082 c-3 -5 3 -17 14 -27 23 -21 26 -9 6 18 -8 10 -17 14 -20
9z"/>
<path d="M4758 3063 c7 -3 16 -2 19 1 4 3 -2 6 -13 5 -11 0 -14 -3 -6 -6z"/>
<path d="M1541 3039 c-1 -9 7 -27 18 -40 10 -13 28 -42 39 -64 12 -22 21 -33
22 -24 0 9 -12 34 -28 55 -15 21 -33 50 -39 64 -8 16 -12 19 -12 9z"/>
<path d="M1500 3019 c0 -8 16 -34 35 -58 19 -24 35 -48 35 -54 0 -6 3 -8 6 -5
7 8 -10 39 -48 92 -15 21 -28 33 -28 25z"/>
<path d="M1461 2999 c26 -49 82 -129 87 -124 3 3 -12 31 -34 62 -21 31 -39 61
-39 67 0 5 -6 11 -13 14 -12 4 -12 0 -1 -19z"/>
<path d="M1283 2999 c-28 -10 -29 -23 -5 -57 10 -15 35 -57 56 -94 20 -38 40
-68 44 -68 4 1 17 6 29 13 21 12 21 13 -33 106 -29 52 -57 98 -61 102 -5 4
-18 3 -30 -2z m62 -70 c9 -17 15 -33 13 -35 -3 -2 -12 12 -21 31 -21 43 -13
47 8 4z m-25 -4 c14 -19 14 -19 -2 -6 -10 7 -18 18 -18 24 0 6 1 8 3 6 1 -2 9
-13 17 -24z"/>
<path d="M1401 3005 c0 -5 13 -28 29 -50 17 -22 36 -52 42 -67 7 -16 16 -28
20 -28 15 0 8 16 -29 66 -21 28 -43 60 -50 70 -6 11 -12 15 -12 9z"/>
<path d="M1376 2978 c4 -13 20 -39 35 -59 16 -20 29 -42 29 -48 0 -6 5 -11 10
-11 16 0 12 8 -30 67 -22 31 -37 60 -34 64 3 5 0 9 -6 9 -7 0 -9 -8 -4 -22z"/>
<path d="M1056 2880 c-37 -80 -29 -86 12 -10 34 63 37 70 24 70 -5 0 -21 -27
-36 -60z"/>
<path d="M4515 2804 c66 -19 196 -70 267 -106 54 -26 56 -29 49 -55 -13 -43
-39 -103 -46 -103 -3 0 -31 11 -63 24 -31 13 -84 31 -117 40 -83 21 -235 44
-235 35 0 -3 24 -10 53 -13 112 -14 231 -45 302 -77 63 -29 75 -39 88 -71 17
-41 28 -46 47 -22 12 13 15 11 26 -15 12 -29 34 -43 34 -21 0 5 7 7 16 3 10
-4 17 2 21 17 6 22 7 22 19 5 12 -17 14 -17 20 -1 3 9 4 25 1 35 -3 14 -1 18
9 14 41 -15 -12 83 -67 125 -28 22 -130 80 -179 103 -152 71 -235 100 -275 98
-11 -1 3 -7 30 -15z m448 -226 c50 -63 55 -73 27 -58 -20 11 -22 10 -16 -5 3
-9 9 -29 12 -43 5 -26 5 -26 -16 6 -12 17 -23 32 -25 32 -2 0 -1 -16 2 -37 4
-26 3 -34 -5 -29 -7 4 -12 14 -12 22 0 8 -5 14 -11 14 -6 0 -9 -9 -6 -20 10
-38 -13 -31 -29 9 -9 23 -20 38 -25 35 -5 -3 -7 -9 -5 -13 5 -8 -11 -38 -16
-31 -32 50 -37 72 -24 103 8 18 20 46 26 64 l12 32 38 -19 c21 -11 54 -39 73
-62z"/>
<path d="M1996 2699 c-14 -46 -23 -99 -16 -99 10 0 33 100 25 108 -2 3 -6 -1
-9 -9z"/>
<path d="M3123 2678 c13 -18 32 -51 41 -73 13 -32 16 -34 11 -10 -8 37 -52
115 -66 115 -5 0 1 -15 14 -32z"/>
<path d="M1055 2510 c-30 -8 -30 -8 8 -9 20 0 37 4 37 9 0 11 -2 11 -45 0z"/>
<path d="M1165 2510 c-14 -5 -4 -9 35 -15 94 -14 127 -15 110 -5 -8 5 -29 10
-47 10 -17 0 -42 4 -55 9 -13 4 -32 5 -43 1z"/>
<path d="M3950 2494 c-7 -16 -13 -41 -16 -56 -2 -16 -6 -42 -9 -58 -3 -19 -1
-29 5 -25 6 3 10 19 10 35 0 16 7 50 16 76 17 50 11 75 -6 28z"/>
<path d="M986 2478 c-14 -19 -32 -51 -41 -71 -10 -25 -20 -35 -28 -30 -9 5 -9
3 0 -9 10 -12 10 -24 -2 -63 -7 -27 -20 -52 -27 -56 -9 -6 -9 -9 -1 -9 8 0 10
-18 7 -57 -3 -51 -2 -49 10 22 26 142 51 215 91 263 15 18 25 35 22 38 -3 3
-17 -10 -31 -28z"/>
<path d="M4230 2492 c0 -5 7 -15 15 -22 8 -7 15 -8 15 -2 0 5 -7 15 -15 22 -8
7 -15 8 -15 2z"/>
<path d="M1335 2481 c6 -5 26 -12 45 -16 23 -5 32 -4 25 3 -5 5 -26 12 -45 16
-21 4 -31 3 -25 -3z"/>
<path d="M1427 2474 c-14 -15 7 -24 51 -22 41 1 42 2 12 5 -19 3 -40 9 -46 14
-6 5 -14 6 -17 3z"/>
<path d="M1840 2450 c0 -5 14 -10 32 -10 36 0 35 4 -4 14 -17 4 -28 2 -28 -4z"/>
<path d="M1583 2443 c9 -2 23 -2 30 0 6 3 -1 5 -18 5 -16 0 -22 -2 -12 -5z"/>
<path d="M1648 2443 c6 -2 18 -2 25 0 6 3 1 5 -13 5 -14 0 -19 -2 -12 -5z"/>
<path d="M1720 2439 c0 -5 21 -9 47 -9 25 0 44 2 42 4 -10 8 -89 13 -89 5z"/>
<path d="M1414 2359 c-10 -17 13 -36 27 -22 12 12 4 33 -11 33 -5 0 -12 -5
-16 -11z"/>
<path d="M3445 2280 c3 -5 1 -10 -4 -10 -6 0 -11 -4 -11 -10 0 -5 6 -10 13
-10 17 0 53 -73 38 -78 -6 -2 -11 -8 -11 -13 0 -4 6 -6 13 -3 8 3 20 -9 29
-30 25 -52 78 -107 123 -126 35 -15 47 -15 110 -3 87 16 83 16 88 -4 4 -14 5
-12 6 5 1 18 7 22 34 23 17 1 24 3 14 6 -10 3 -53 -2 -96 -11 -102 -21 -129
-20 -169 4 -53 32 -78 68 -124 173 -24 53 -46 97 -51 97 -4 0 -5 -4 -2 -10z"/>
<path d="M1575 2251 c-49 -30 -157 -149 -153 -168 2 -10 13 -22 26 -28 12 -5
22 -13 22 -17 0 -5 7 -8 15 -8 8 0 15 -4 15 -10 0 -28 121 21 144 59 5 8 13 8
26 1 17 -9 198 -50 221 -50 5 0 9 4 9 8 0 4 -35 14 -77 21 -43 8 -99 22 -125
31 -45 17 -48 17 -64 -1 -9 -10 -37 -30 -61 -44 l-43 -26 -29 20 c-16 12 -34
21 -40 21 -6 0 -8 7 -5 15 5 11 2 13 -10 9 -9 -3 -16 -3 -16 1 0 12 120 139
149 157 25 16 28 16 68 -2 23 -10 77 -23 120 -30 43 -6 89 -13 103 -16 15 -3
21 -2 15 4 -5 5 -50 14 -99 20 -49 6 -106 21 -128 32 -47 24 -46 24 -83 1z"/>
<path d="M1928 2193 c17 -2 47 -2 65 0 17 2 3 4 -33 4 -36 0 -50 -2 -32 -4z"/>
<path d="M5010 2124 c0 -5 26 -40 57 -79 31 -38 72 -94 91 -122 19 -29 39 -53
44 -53 10 0 6 8 -32 61 -74 105 -160 208 -160 193z"/>
<path d="M4285 2110 c-7 -12 12 -12 40 0 18 8 17 9 -7 9 -15 1 -30 -3 -33 -9z"/>
<path d="M882 2057 c-1 -32 -7 -67 -12 -77 -6 -12 -7 -21 -1 -25 14 -8 23 50
18 110 l-3 50 -2 -58z"/>
<path d="M4225 2100 c-48 -13 -215 -47 -270 -55 l-50 -8 35 -8 c19 -4 37 -4
40 1 8 13 114 30 118 19 2 -5 8 -9 13 -9 6 0 8 4 4 10 -3 5 14 14 37 20 24 6
50 13 60 16 9 3 19 0 23 -6 4 -7 11 -5 21 4 26 27 20 30 -31 16z"/>
<path d="M1160 2091 c0 -31 160 -112 218 -110 20 1 16 3 -15 10 -61 12 -123
41 -166 79 -20 17 -37 27 -37 21z"/>
<path d="M3210 2068 c0 -12 18 -97 72 -350 12 -54 25 -98 31 -98 5 0 6 10 3
23 -3 12 -15 60 -26 107 -46 201 -64 286 -62 302 0 10 -3 20 -9 23 -5 4 -9 0
-9 -7z"/>
<path d="M4650 2076 c0 -7 255 -394 268 -406 23 -22 -27 60 -129 214 -125 187
-139 206 -139 192z"/>
<path d="M4372 1971 c11 -30 94 -170 101 -171 5 0 -13 40 -40 90 -26 49 -52
90 -56 90 -5 0 -7 -4 -5 -9z"/>
<path d="M1550 1904 c-23 -60 -23 -61 0 -27 12 18 20 40 18 49 -2 11 -9 2 -18
-22z"/>
<path d="M2955 1908 c3 -18 10 -64 16 -103 10 -72 19 -96 19 -54 0 50 -23 189
-32 189 -5 0 -6 -15 -3 -32z"/>
<path d="M870 1905 c-2 -11 -3 -27 -4 -35 -5 -60 -33 -173 -44 -178 -10 -3
-10 -7 -2 -12 8 -5 6 -29 -9 -88 -23 -90 -27 -135 -5 -57 28 99 75 345 71 367
-4 20 -5 21 -7 3z"/>
<path d="M2403 1898 c6 -26 23 -235 20 -258 -1 -11 3 -9 13 4 10 14 11 22 3
27 -7 4 -10 30 -7 68 1 33 0 61 -4 61 -13 0 -9 68 3 76 8 5 6 10 -5 16 -9 5
-14 13 -11 19 4 5 1 9 -5 9 -8 0 -10 -9 -7 -22z"/>
<path d="M4000 1916 c-1 -20 24 -86 32 -86 5 0 6 10 2 23 -9 29 -33 75 -34 63z"/>
<path d="M3631 1868 c-2 -13 29 -121 35 -127 11 -10 -3 62 -19 99 -9 19 -16
32 -16 28z"/>
<path d="M2460 1801 c5 -11 10 -40 10 -65 0 -25 5 -48 11 -52 6 -3 9 -19 7
-35 -5 -33 7 -39 17 -9 4 13 0 31 -9 46 -9 13 -15 37 -13 52 5 31 -11 82 -24
82 -6 0 -5 -8 1 -19z"/>
<path d="M4265 1756 c-19 -34 -19 -35 -52 -21 -19 8 -58 17 -86 19 l-52 5 53
-13 c77 -20 115 -37 104 -48 -5 -5 -21 -2 -38 7 -16 8 -53 20 -82 27 -45 10
-55 9 -63 -3 -8 -12 -11 -12 -18 1 -7 12 -27 14 -95 12 -63 -3 -84 -7 -79 -15
4 -8 1 -8 -9 1 -13 11 -21 8 -48 -15 -30 -25 -32 -30 -28 -75 6 -61 26 -83
108 -121 36 -16 84 -38 108 -48 23 -11 42 -24 42 -28 0 -17 -25 -19 -42 -4 -9
8 -48 28 -88 44 -95 39 -124 60 -150 115 -12 25 -24 43 -27 40 -10 -9 30 -77
62 -105 18 -15 65 -41 104 -56 40 -15 71 -29 69 -30 -8 -8 -147 14 -173 28
-76 39 -120 118 -91 162 17 26 9 34 -12 13 -35 -35 2 -121 73 -169 36 -25 67
-33 198 -54 20 -3 37 -10 37 -15 0 -6 -4 -10 -8 -10 -5 0 -24 -14 -42 -30
l-34 -30 29 -30 28 -29 -24 -21 c-13 -11 -70 -43 -127 -72 -101 -50 -102 -51
-85 -70 24 -27 60 -44 109 -52 51 -9 145 24 174 61 22 29 26 73 8 91 -20 20
-28 14 -28 -23 0 -41 -27 -73 -73 -86 -21 -6 -27 -5 -20 2 6 6 18 11 27 13 9
1 17 6 17 12 0 5 8 12 18 16 13 4 20 19 23 47 2 27 0 40 -7 37 -6 -2 -11 5
-11 15 0 11 1 19 2 19 4 0 59 -47 133 -115 42 -38 99 -88 126 -110 28 -22 52
-42 55 -45 61 -62 165 -100 290 -107 84 -5 106 -2 184 22 72 22 98 36 135 70
184 172 187 463 6 581 -20 13 -181 75 -340 130 -38 13 -83 31 -100 38 -16 8
-48 18 -70 22 -22 3 -52 13 -67 20 -35 18 -32 19 -53 -20z m94 -8 c69 -17 140
-50 118 -55 -24 -6 -62 -82 -48 -96 19 -19 12 -27 -16 -16 -25 9 -26 9 -12 -8
32 -37 31 -47 -2 -17 -40 37 -66 47 -75 32 -4 -6 -3 -8 3 -5 16 10 23 -31 7
-44 -11 -9 -15 -8 -19 3 -10 24 -12 89 -3 94 10 6 50 -20 43 -29 -3 -4 -2 -4
3 -1 4 3 7 9 8 12 2 15 18 48 36 75 14 19 16 27 6 27 -7 0 -22 -17 -33 -37
-16 -30 -26 -37 -50 -38 -28 0 -30 -3 -33 -42 -5 -73 30 -107 62 -61 l16 22
28 -27 c21 -20 31 -24 39 -16 6 6 9 18 6 26 -3 7 -2 13 3 12 23 -4 25 3 10 26
-15 23 -15 28 -1 55 13 25 19 29 45 23 25 -5 29 -3 24 11 -8 20 5 20 56 0 32
-13 39 -20 35 -35 -4 -11 -4 -33 0 -49 7 -34 29 -39 57 -13 17 15 20 15 49 -6
29 -22 31 -22 44 -4 8 10 13 23 10 30 -4 13 89 -25 127 -51 22 -16 22 -16 1
-16 -25 0 -41 -18 -58 -67 -10 -28 -20 -39 -43 -45 -38 -10 -43 -24 -33 -88
10 -64 30 -87 60 -71 11 7 21 21 21 31 0 23 17 25 44 5 28 -21 39 -19 54 13
11 23 10 29 -4 39 -24 18 1 83 33 83 17 0 24 -8 32 -37 38 -137 -28 -325 -146
-415 -97 -73 -267 -97 -412 -57 -81 22 -124 48 -126 79 -1 10 -6 24 -12 32
-16 18 15 53 47 53 17 0 26 7 31 25 6 25 6 25 22 -10 8 -19 13 -39 10 -44 -3
-4 1 -12 8 -17 9 -6 3 -7 -17 -3 -40 8 -60 -14 -47 -53 l9 -27 19 31 c15 26
22 30 41 23 26 -10 35 -4 27 18 -4 10 -2 13 5 8 7 -4 12 -2 12 3 0 6 -9 16
-20 23 -11 7 -20 17 -20 22 0 19 -44 56 -67 56 -17 0 -33 -15 -59 -55 -20 -30
-41 -55 -45 -55 -10 0 -61 43 -154 130 -39 36 -99 89 -134 119 l-64 55 35 30
c19 17 56 48 82 69 50 41 161 183 217 280 22 37 39 55 48 52 7 -3 34 -11 60
-17z m-269 -58 c36 -10 74 -25 84 -33 18 -14 18 -16 -15 -60 -19 -25 -43 -57
-53 -72 -11 -14 -29 -37 -41 -51 l-21 -25 -45 25 c-24 13 -75 37 -112 52 -66
26 -88 45 -101 91 -6 18 1 25 48 46 l54 25 59 -57 c32 -31 73 -74 91 -95 18
-21 36 -35 39 -32 6 6 -36 53 -131 147 l-56 56 -55 -28 c-41 -21 -55 -25 -55
-14 0 17 13 26 70 45 53 18 136 11 240 -20z m37 24 c86 -29 93 -33 87 -47 -4
-10 -17 -7 -61 15 -31 15 -62 28 -69 28 -7 0 -16 5 -19 10 -9 14 7 12 62 -6z
m581 -88 c46 -16 70 -36 41 -36 -5 0 -7 -4 -4 -10 3 -5 1 -10 -4 -10 -6 0 -11
4 -11 8 0 5 -12 14 -26 21 -23 10 -28 9 -41 -9 -18 -25 -30 -25 -38 0 -8 26 4
63 18 57 7 -2 36 -12 65 -21z m238 -117 c5 -8 -3 -10 -25 -7 -39 6 -30 -4 17
-17 37 -11 56 -35 27 -35 -9 0 -19 -9 -22 -20 -4 -16 -9 -18 -26 -8 -11 6 -31
14 -44 17 -13 4 -20 11 -15 18 5 8 17 8 45 -2 27 -9 37 -10 34 -1 -2 6 -12 13
-23 15 -32 6 -46 22 -33 37 14 17 55 18 65 3z m-40 -99 c15 -6 24 -13 21 -16
-9 -9 -77 6 -77 16 0 13 22 13 56 0z m-61 -19 c3 -5 19 -12 35 -16 17 -4 35
-15 40 -26 8 -15 7 -17 -5 -13 -20 8 -19 -5 3 -29 15 -17 12 -17 -25 4 -45 25
-51 24 -58 -11 -6 -32 -20 -44 -33 -28 -11 14 -24 107 -16 120 7 11 51 10 59
-1z m-901 -152 c-10 -11 -19 -26 -20 -32 0 -7 -2 -20 -2 -29 -1 -10 -7 -18
-12 -18 -7 0 -7 7 0 21 7 11 9 23 6 26 -7 8 -27 -7 -21 -16 2 -5 -1 -16 -8
-25 -11 -14 -12 -13 -13 9 -2 19 6 29 25 40 15 7 33 21 40 29 8 9 16 16 19 16
3 0 -3 -9 -14 -21z m73 -61 c-3 -8 -6 -5 -6 6 -1 11 2 17 5 13 3 -3 4 -12 1
-19z m-164 -9 c5 -17 3 -18 -10 -7 -12 10 -17 9 -28 -5 -6 -9 -15 -14 -19 -10
-4 5 39 42 50 43 1 0 4 -9 7 -21z m138 -42 l-24 -22 19 27 c10 14 21 24 23 22
3 -3 -6 -15 -18 -27z m-66 13 c-3 -5 -11 -10 -16 -10 -6 0 -7 5 -4 10 3 6 11
10 16 10 6 0 7 -4 4 -10z m-145 -10 c0 -5 -2 -10 -4 -10 -3 0 -8 5 -11 10 -3
6 -1 10 4 10 6 0 11 -4 11 -10z m-19 -17 c13 -16 12 -17 -3 -4 -10 7 -18 15
-18 17 0 8 8 3 21 -13z m100 -11 c-7 -2 -18 1 -23 6 -8 8 -4 9 13 5 13 -4 18
-8 10 -11z"/>
<path d="M4390 1610 c-9 -6 -10 -10 -3 -10 6 0 15 5 18 10 8 12 4 12 -15 0z"/>
<path d="M4543 1468 c-6 -7 -21 -35 -33 -61 -14 -28 -29 -46 -36 -43 -35 13
-50 -92 -19 -124 13 -12 18 -10 44 14 l29 28 17 -26 c20 -31 45 -34 45 -6 0
11 7 20 15 20 21 0 19 27 -2 39 -17 9 -17 11 0 46 14 30 20 34 35 26 24 -13
52 3 35 20 -10 10 -9 15 5 25 15 11 14 14 -13 23 -16 6 -38 16 -47 21 -24 14
-64 13 -75 -2z m67 -13 c19 -10 27 -20 24 -30 -4 -9 3 -19 17 -25 21 -9 20 -9
-8 -4 -23 4 -34 1 -40 -11 -8 -14 -12 -14 -47 0 -43 18 -44 31 -2 15 33 -12
46 -13 46 -1 0 4 -14 12 -31 17 -17 5 -29 14 -27 19 3 11 14 11 41 0 25 -11
21 10 -5 23 -13 6 -17 11 -10 11 7 1 26 -6 42 -14z m-44 -91 c19 -5 22 -10 15
-23 -7 -11 -4 -22 11 -38 25 -27 7 -31 -20 -5 -10 9 -33 25 -52 35 -29 14 -31
17 -10 14 14 -3 33 -8 43 -12 9 -4 17 -3 17 3 0 6 -13 15 -30 21 -16 5 -30 13
-30 17 0 3 7 3 16 0 9 -3 27 -9 40 -12z m-53 -45 c24 -8 45 -25 53 -41 22 -43
16 -45 -21 -4 -20 22 -39 35 -46 31 -8 -6 -7 -10 2 -17 10 -6 6 -7 -11 -3 -14
4 -29 12 -35 17 -7 7 -2 8 14 3 16 -5 21 -4 17 4 -4 6 -14 11 -22 11 -15 0
-19 12 -7 23 4 4 9 3 12 -1 3 -5 23 -15 44 -23z m-25 -48 c11 -6 10 -10 -4
-15 -9 -3 -19 -4 -22 -1 -3 3 1 5 9 5 11 0 11 2 -1 10 -8 5 -10 10 -5 10 6 0
16 -4 23 -9z"/>
<path d="M4189 1427 c-17 -17 -38 -44 -47 -59 -9 -16 -24 -28 -34 -28 -34 0
-59 -87 -32 -114 15 -16 18 -16 39 4 25 24 44 19 79 -19 23 -25 36 -27 36 -4
0 9 -3 13 -6 10 -4 -4 -25 7 -48 24 -41 30 -41 30 -58 9 -23 -29 -38 -25 -38
11 0 39 17 70 34 63 8 -3 19 4 26 16 8 15 15 18 24 11 18 -15 43 4 28 22 -16
19 -7 39 24 54 28 13 64 2 64 -19 0 -7 -4 -7 -14 1 -10 8 -16 9 -21 1 -8 -13
4 -32 16 -25 5 3 19 -3 31 -15 17 -16 18 -19 6 -15 -22 9 -24 -8 -3 -25 25
-20 17 -32 -10 -14 -13 8 -28 13 -34 10 -5 -3 -11 -1 -13 6 -2 6 -10 8 -16 4
-17 -10 -15 -26 4 -26 14 0 14 -3 4 -15 -10 -13 -10 -19 4 -33 24 -27 19 -37
-9 -18 -31 21 -38 20 -24 -1 13 -21 59 -27 59 -8 0 7 -6 18 -14 25 -12 9 -12
17 -4 35 10 23 12 23 39 10 31 -17 49 -4 29 20 -10 12 -9 15 9 15 29 0 27 18
-4 32 -14 6 -25 19 -25 28 0 18 -25 43 -53 53 -13 5 -27 -3 -48 -26z"/>
<path d="M4136 1304 c-6 -17 16 -35 32 -25 16 10 6 38 -13 38 -8 0 -16 -6 -19
-13z"/>
<path d="M4731 1155 c-11 -15 -23 -35 -26 -46 -4 -12 -15 -19 -30 -19 -30 0
-46 -27 -48 -82 -2 -29 3 -43 16 -52 15 -9 22 -7 37 12 l20 24 29 -21 c37 -26
42 -26 65 5 17 23 17 27 3 41 -14 14 -14 19 -1 38 11 17 21 21 41 17 22 -4 25
-2 19 13 -4 11 -2 22 5 26 8 4 -2 16 -27 32 -63 39 -79 41 -103 12z m39 -6 c0
-6 8 -9 18 -7 10 3 27 -1 37 -8 18 -14 18 -14 0 -14 -17 0 -17 -1 -1 -19 17
-19 17 -19 -3 -14 -12 3 -21 9 -21 14 0 5 -5 9 -11 9 -6 0 -8 -8 -5 -18 4 -10
0 -27 -8 -38 -13 -17 -12 -21 2 -38 16 -18 16 -18 -5 -12 -25 8 -30 -3 -11
-22 18 -18 -3 -14 -23 4 -10 9 -15 22 -12 30 9 24 -9 16 -38 -17 -18 -20 -34
-29 -44 -26 -19 8 -20 27 0 27 18 0 20 17 4 22 -13 4 -3 48 11 48 5 0 7 -6 4
-14 -3 -8 -1 -17 5 -21 6 -3 11 -1 11 4 0 20 4 26 38 59 19 17 29 32 22 32
-10 0 -10 3 0 15 15 18 30 20 30 4z"/>
<path d="M4736 1072 c-3 -6 -1 -14 5 -17 15 -10 25 3 12 16 -7 7 -13 7 -17 1z"/>
<path d="M3895 1769 c-5 -7 4 -8 27 -4 18 3 57 1 86 -3 29 -5 55 -6 57 -2 3 4
-12 10 -33 14 -58 9 -130 7 -137 -5z"/>
<path d="M3803 1757 c-41 -15 -69 -44 -78 -82 -8 -35 0 -29 23 17 13 25 31 38
72 55 56 23 41 31 -17 10z"/>
<path d="M1880 1620 c0 -11 2 -20 4 -20 2 0 6 9 9 20 3 11 1 20 -4 20 -5 0 -9
-9 -9 -20z"/>
<path d="M1317 1585 c-16 -20 -37 -35 -49 -35 -12 0 -19 -3 -15 -6 13 -14 57
8 74 36 24 41 46 38 101 -14 43 -41 45 -46 34 -70 -6 -15 -24 -31 -39 -37 -14
-5 -32 -17 -38 -26 -7 -9 -30 -22 -51 -28 l-39 -11 3 -70 c4 -88 -10 -109 -70
-105 -9 0 -30 22 -45 49 -15 26 -40 65 -55 86 -45 62 -36 106 24 121 25 7 88
65 69 65 -5 0 -18 -10 -28 -23 -10 -12 -36 -29 -58 -38 -32 -12 -41 -20 -43
-43 -4 -34 13 -78 39 -102 28 -25 23 -34 -16 -34 -19 0 -35 -5 -35 -10 0 -9
26 -7 66 5 6 2 18 -14 28 -35 10 -24 27 -42 47 -50 27 -11 34 -11 57 7 25 19
27 26 27 93 l0 73 40 14 c22 7 45 19 50 27 6 7 20 16 33 20 22 7 54 47 58 72
2 14 -59 74 -93 93 -34 17 -46 14 -76 -24z"/>
<path d="M3596 1520 c-34 -33 -72 -57 -107 -69 -72 -25 -219 -97 -253 -125
l-28 -22 132 -109 c151 -125 241 -234 308 -375 46 -95 63 -116 160 -193 111
-89 125 -92 199 -49 26 15 75 38 108 51 66 27 125 64 197 124 46 38 106 117
90 117 -5 0 -15 -12 -23 -26 -33 -62 -132 -135 -284 -210 -82 -41 -157 -74
-166 -74 -19 0 -170 115 -207 158 -13 15 -41 63 -61 107 -65 136 -162 256
-305 375 -100 83 -123 107 -113 117 15 14 180 97 251 124 28 11 71 39 96 62
25 23 55 47 66 54 11 7 14 12 6 12 -7 1 -37 -22 -66 -49z"/>
<path d="M3600 1470 c-30 -22 -60 -40 -66 -40 -6 0 -17 -7 -24 -15 -10 -13
-10 -19 5 -35 23 -25 40 -25 74 0 l28 19 22 -30 22 -29 25 23 c24 23 25 57 1
57 -6 0 0 11 13 25 23 24 23 25 5 45 -25 28 -42 25 -105 -20z m90 15 c15 -18
7 -31 -34 -53 -18 -9 -49 -26 -68 -36 -34 -18 -68 -17 -68 2 0 5 11 14 24 20
13 6 45 27 71 46 52 40 58 42 75 21z m-2 -86 c4 -23 -28 -33 -47 -14 -14 14
-14 17 -1 25 21 14 44 8 48 -11z"/>
<path d="M780 1450 c-13 -9 -13 -10 0 -10 9 0 22 -20 33 -50 21 -60 37 -77 85
-89 46 -11 166 -21 157 -13 -3 3 -38 9 -78 13 -40 4 -84 12 -98 19 -28 13 -69
83 -69 119 0 23 -7 26 -30 11z"/>
<path d="M3520 1320 l-35 -7 35 -1 c19 0 44 3 55 8 l20 9 -20 -1 c-11 0 -36
-4 -55 -8z"/>
<path d="M1340 1295 c8 -2 32 -6 53 -10 24 -4 35 -10 31 -17 -4 -7 -3 -8 5 -4
14 9 123 -14 133 -28 5 -7 8 -7 8 -1 0 6 23 9 55 7 30 -2 55 0 55 5 0 5 -32
10 -71 11 -38 1 -106 11 -149 22 -43 11 -91 19 -107 19 -15 -1 -21 -3 -13 -4z"/>
<path d="M1327 1250 c12 -13 60 -26 153 -40 123 -19 190 -26 190 -18 0 8 -21
12 -52 9 -9 -1 -36 4 -60 10 -24 7 -61 14 -83 15 -50 2 -126 17 -145 29 -12 6
-12 5 -3 -5z"/>
<path d="M1081 1111 c-13 -34 -22 -64 -19 -66 7 -7 50 103 46 117 -2 6 -15
-16 -27 -51z"/>
<path d="M4070 1115 c0 -14 5 -25 10 -25 6 0 10 5 10 10 0 6 8 10 18 10 15 1
15 2 -2 15 -28 21 -36 19 -36 -10z"/>
<path d="M1461 1063 c-20 -109 -42 -206 -61 -264 -10 -33 -14 -59 -10 -59 9 0
52 157 75 270 9 41 18 83 21 93 3 9 1 17 -4 17 -6 0 -15 -26 -21 -57z"/>
<path d="M3405 1093 c4 -10 12 -31 17 -48 12 -34 28 -56 28 -38 0 17 -38 103
-46 103 -3 0 -3 -8 1 -17z"/>
<path d="M4030 1091 c0 -7 -6 -11 -15 -7 -18 7 -20 -8 -2 -22 17 -14 38 10 26
29 -7 11 -9 12 -9 0z"/>
<path d="M4150 1066 c0 -20 26 -40 35 -26 3 5 -1 13 -9 16 -9 3 -13 10 -10 15
3 5 0 9 -5 9 -6 0 -11 -6 -11 -14z"/>
<path d="M1906 1059 c-11 -41 -41 -261 -35 -264 7 -5 52 266 44 273 -2 3 -6
-1 -9 -9z"/>
<path d="M3972 1040 c7 -11 16 -20 21 -20 4 0 3 9 -3 20 -6 11 -15 20 -20 20
-6 0 -5 -9 2 -20z"/>
<path d="M3052 1025 c-1 -16 5 -61 12 -100 8 -38 14 -56 14 -40 0 17 -6 62
-13 100 -7 39 -13 57 -13 40z"/>
<path d="M3915 1020 c6 -19 4 -22 -10 -17 -11 5 -15 3 -13 -5 3 -7 12 -14 21
-16 12 -3 17 4 17 22 0 14 -5 28 -11 32 -8 4 -9 -1 -4 -16z"/>
<path d="M4102 1022 c-8 -2 -9 -9 -2 -23 12 -22 26 -25 33 -6 6 15 -14 35 -31
29z"/>
<path d="M2221 903 c1 -85 3 -99 10 -68 11 57 11 175 -1 175 -6 0 -10 -42 -9
-107z"/>
<path d="M3831 983 c-1 -15 5 -23 15 -23 8 0 12 -4 9 -10 -3 -5 -2 -10 4 -10
20 0 22 22 3 27 -12 3 -23 12 -25 22 -3 11 -5 9 -6 -6z"/>
<path d="M4030 961 c0 -5 6 -14 14 -20 10 -8 16 -8 25 2 6 8 8 17 4 20 -9 10
-43 8 -43 -2z"/>
<path d="M2586 890 c4 -36 7 -73 6 -82 0 -10 4 -18 9 -18 13 0 1 141 -13 155
-7 7 -7 -12 -2 -55z"/>
<path d="M3965 920 c-4 -7 -3 -16 3 -22 14 -14 45 -2 40 15 -6 16 -34 21 -43
7z"/>
<path d="M3890 888 c0 -7 7 -22 15 -32 12 -15 17 -17 29 -7 12 10 13 16 3 32
-13 21 -47 26 -47 7z"/>
<path d="M3968 713 c-33 -2 -58 -9 -58 -15 0 -13 91 -4 118 11 9 6 13 10 7 9
-5 -1 -36 -3 -67 -5z"/>
</g>
</svg>
